<?xml version="1.0" encoding="utf-8"?>
<!-- Generator: Adobe Illustrator 18.0.0, SVG Export Plug-In . SVG Version: 6.00 Build 0)  -->
<!DOCTYPE svg PUBLIC "-//W3C//DTD SVG 1.1//EN" "http://www.w3.org/Graphics/SVG/1.1/DTD/svg11.dtd">
<svg version="1.1" id="Layer_1" xmlns="http://www.w3.org/2000/svg" xmlns:xlink="http://www.w3.org/1999/xlink" x="0px" y="0px"
	 width="256px" height="256px" viewBox="0 0 256 256" enable-background="new 0 0 256 256" xml:space="preserve">
<g>
	<g>
		<path fill="#71CDE1" d="M120,127.7v125.6h-7.6v-51.5H52.3v51.5h-8.5V127.7c0-0.6,0.5-1.1,1.1-1.1c0.6,0,1.1,0.5,1.1,1.1v48h71.8
			v-48c0-0.6,0.5-1.1,1.1-1.1C119.5,126.6,120,127,120,127.7z"/>
	</g>
	<g>
		<g>
			<g>
				<path fill="#4A555F" d="M81.9,128.1c-24,0-43.6-19.5-43.6-43.6S57.8,41,81.9,41c24,0,43.6,19.5,43.6,43.6
					S105.9,128.1,81.9,128.1z M81.9,44.1c-22.3,0-40.4,18.1-40.4,40.4c0,22.3,18.1,40.4,40.4,40.4s40.4-18.1,40.4-40.4
					C122.3,62.2,104.2,44.1,81.9,44.1z"/>
			</g>
			<g>
				<path fill="#FFD552" d="M81.9,121.1c-20.1,0-36.5-16.4-36.5-36.5S61.7,48,81.9,48s36.5,16.4,36.5,36.5S102,121.1,81.9,121.1z"/>
			</g>
			<g>
				<path fill="#4A555F" d="M39.9,254.8H0v-78c0-23.2,15.6-43.7,37.9-49.9l2-0.6V254.8z M3.1,251.7h33.6V130.5
					C16.8,137,3.1,155.7,3.1,176.8V251.7z"/>
			</g>
			<g>
				<path fill="#4A555F" d="M113.9,171.8h-64v-44.1c0-0.3,0-0.6-0.1-0.8l-0.3-1.8h64.8l-0.3,1.8c0,0.3-0.1,0.6-0.1,0.8V171.8z
					 M53,168.7h57.7v-40.5H53V168.7z"/>
			</g>
			<g>
				<path fill="#4A555F" d="M163.8,254.8h-39.9V126.3l2,0.6c22.3,6.2,37.9,26.8,37.9,49.9V254.8z M127.1,251.7h33.6v-74.9
					c0-21.1-13.7-39.8-33.6-46.3V251.7z"/>
			</g>
		</g>
		<g>
			<rect x="18.5" y="201.7" fill="#4A555F" width="3.1" height="51.5"/>
		</g>
		<g>
			<rect x="138.9" y="201.7" fill="#4A555F" width="3.1" height="51.5"/>
		</g>
	</g>
	<g>
		<path fill="#4A555F" d="M127.1,254.8H36.7V127.7c0-4.5,3.7-8.2,8.2-8.2s8.2,3.7,8.2,8.2v41h57.7v-41c0-4.5,3.7-8.2,8.2-8.2
			s8.2,3.7,8.2,8.2V254.8z M39.9,251.7h84.1v-124c0-2.8-2.3-5-5-5c-2.8,0-5,2.3-5,5v44.1h-64v-44.1c0-2.8-2.3-5-5-5
			c-2.8,0-5,2.3-5,5V251.7z"/>
	</g>
	<g>
		<path fill="#4A555F" d="M127.1,254.8H36.7V127.7c0-4.5,3.7-8.2,8.2-8.2s8.2,3.7,8.2,8.2v41h57.7v-41c0-4.5,3.7-8.2,8.2-8.2
			s8.2,3.7,8.2,8.2V254.8z M39.9,251.7h84.1v-124c0-2.8-2.3-5-5-5c-2.8,0-5,2.3-5,5v44.1h-64v-44.1c0-2.8-2.3-5-5-5
			c-2.8,0-5,2.3-5,5V251.7z"/>
	</g>
	<g>
		<path fill="#4A555F" d="M114,254.8H50.7v-54.7H114V254.8z M53.8,251.7h57v-48.4h-57V251.7z"/>
	</g>
	<g>
		<path fill="#4A555F" d="M111.8,214.8h-3.1v-3.1h3.1V214.8z M105.5,214.8h-3.1v-3.1h3.1V214.8z M99.2,214.8h-3.1v-3.1h3.1V214.8z
			 M93,214.8h-3.1v-3.1H93V214.8z M86.7,214.8h-3.1v-3.1h3.1V214.8z M80.5,214.8h-3.1v-3.1h3.1V214.8z M74.2,214.8h-3.1v-3.1h3.1
			V214.8z M67.9,214.8h-3.1v-3.1h3.1V214.8z M61.7,214.8h-3.1v-3.1h3.1V214.8z M55.4,214.8h-3.1v-3.1h3.1V214.8z"/>
	</g>
	<g>
		<path fill="#4A555F" d="M65.8,162.2L51.3,125h16.6L84,142.3L65.8,162.2z M55.8,128.1l11,28.2l12.9-14l-13.3-14.2H55.8z"/>
	</g>
	<g>
		<path fill="#4A555F" d="M98,162.2l-18.3-19.9L95.9,125h16.6L98,162.2z M84,142.3l12.9,14l11-28.2H97.3L84,142.3z"/>
	</g>
	<g>
		<rect x="80.3" y="142.3" fill="#4A555F" width="3.1" height="27.9"/>
	</g>
	<g>
		<path fill="#4A555F" d="M208.1,254.8c-5.9,0-11.6-2.5-15.6-6.8c-4-4.3-6-10.2-5.5-16.1l8.9-75.8c0.7-7.9-3.1-15.8-9.8-20.3
			c-10.4-7.1-16.6-18.8-16.6-31.3c0-15.4,9.2-29.1,23.4-35l2.2-0.9l0.1,33.9c0,3,1.9,5.7,4.8,6.6l9.7,3.2c2.5,0.8,5.3,0.1,7.1-1.7
			c1.3-1.3,2-3.1,2-4.9l-0.1-37.3l2.1,0.8c14.6,5.6,24.3,19.8,24.3,35.4c0,12.1-5.9,23.6-15.7,30.7c-6.3,4.6-9.9,12.2-9.2,20l9,76.7
			c0.5,5.9-1.5,11.8-5.5,16.1C219.7,252.3,214,254.8,208.1,254.8z M192,73.4c-11.8,5.8-19.3,17.8-19.3,31.1
			c0,11.5,5.7,22.2,15.2,28.7c7.7,5.2,11.9,14.1,11.2,23.2l-8.9,75.8c-0.4,5,1.3,9.9,4.7,13.7c3.5,3.8,8.2,5.8,13.3,5.8
			c5.1,0,9.8-2.1,13.3-5.8c3.5-3.8,5.1-8.6,4.7-13.7l-9-76.7c-0.7-8.9,3.3-17.6,10.5-22.8c9-6.5,14.4-17,14.4-28.2
			c0-13.5-8-25.9-20.2-31.5l0.1,32.7c0,2.7-1,5.2-2.9,7.2c-2.6,2.7-6.7,3.7-10.3,2.5l-9.7-3.2c-4.2-1.4-7-5.2-7-9.6L192,73.4z"/>
	</g>
	<g>
		<path fill="#E0E0E0" d="M225.8,79.8l0.1,25.8c0,3.8-1.4,7.3-4.1,9.9c-2.6,2.6-6.2,4.1-9.9,4.1c-1.5,0-2.9-0.2-4.3-0.7l-9.7-3.2
			c-5.8-1.9-9.7-7.2-9.7-13.3l0-22.1c-7.2,5.7-11.5,14.5-11.5,24c0,10.2,5,19.7,13.5,25.5c8.8,6,13.8,16.3,12.9,26.8l-8.9,75.9
			c-0.3,4,1,7.7,3.7,10.7c2.7,2.9,6.4,4.6,10.4,4.6c4,0,7.7-1.6,10.4-4.6c2.7-2.9,4-6.7,3.7-10.7l-9-76.9
			c-0.8-10.2,3.8-20.3,12.1-26.3c8-5.8,12.8-15.1,12.8-25C238.2,94.7,233.4,85.5,225.8,79.8z M215.5,232.6c0,4.1-3.3,7.4-7.4,7.4
			c-4.1,0-7.4-3.3-7.4-7.4c0-4.1,3.3-7.4,7.4-7.4C212.2,225.2,215.5,228.5,215.5,232.6z"/>
	</g>
	<g>
		<path fill="#4A555F" d="M208.1,249.4L208.1,249.4c-0.6,0-1.2,0-1.9-0.1c-3-0.3-6-1.6-8.3-3.6c-3.9-3.3-5.9-8.1-5.5-13.2l7.4-63
			c0.5-4.2,4-7.3,8.3-7.3c4.2,0,7.8,3.2,8.3,7.4l7.4,63c0.3,4.5-1.1,8.7-4.1,11.9C216.7,247.6,212.6,249.4,208.1,249.4z
			 M208.1,165.2c-2.6,0-4.8,2-5.2,4.6l-7.4,63c-0.3,4,1.3,7.8,4.4,10.5c1.8,1.6,4.2,2.6,6.6,2.9c4.1,0.5,8-1,10.8-4
			c2.4-2.6,3.6-6,3.3-9.5l-7.4-62.9C213,167.2,210.8,165.2,208.1,165.2z"/>
	</g>
	<g>
		<path fill="#E0E0E0" d="M206.5,28.7l-16.8,9.7v19.3l16.8,9.7l16.8-9.7V38.3L206.5,28.7z M206.5,56.2c-4.5,0-8.2-3.7-8.2-8.2
			c0-4.5,3.7-8.2,8.2-8.2c4.5,0,8.2,3.7,8.2,8.2C214.8,52.5,211.1,56.2,206.5,56.2z"/>
	</g>
	<g>
		<path fill="#4A555F" d="M206.5,69.2l-18.3-10.6V37.4l18.3-10.6l18.3,10.6v21.2L206.5,69.2z M191.4,56.8l15.2,8.8l15.2-8.8V39.2
			l-15.2-8.8l-15.2,8.8V56.8z"/>
	</g>
	<g>
		<path fill="#4A555F" d="M206.5,57.8c-5.4,0-9.8-4.4-9.8-9.8s4.4-9.8,9.8-9.8s9.8,4.4,9.8,9.8S211.9,57.8,206.5,57.8z M206.5,41.4
			c-3.7,0-6.7,3-6.7,6.7c0,3.7,3,6.7,6.7,6.7c3.7,0,6.7-3,6.7-6.7C213.2,44.3,210.2,41.4,206.5,41.4z"/>
	</g>
	<g>
		<path fill="#4A555F" d="M208.1,241.5c-4.9,0-8.9-4-8.9-8.9s4-8.9,8.9-8.9c4.9,0,8.9,4,8.9,8.9S213.1,241.5,208.1,241.5z
			 M208.1,226.8c-3.2,0-5.8,2.6-5.8,5.8c0,3.2,2.6,5.8,5.8,5.8c3.2,0,5.8-2.6,5.8-5.8C213.9,229.4,211.3,226.8,208.1,226.8z"/>
	</g>
	<g>
		<g>
			<path fill="#4A555F" d="M207.7,16.8h-3.1v-3.1h3.1V16.8z M207.7,10.6h-3.1V7.4h3.1V10.6z M207.7,4.3h-3.1V1.2h3.1V4.3z"/>
		</g>
		<g>
			<path fill="#4A555F" d="M242.6,39.9l-1.6-2.7l2.7-1.6l1.6,2.7L242.6,39.9z M248,36.6l-1.6-2.7l2.7-1.6l1.6,2.7L248,36.6z
				 M253.3,33.3l-1.6-2.7l2.7-1.6l1.6,2.7L253.3,33.3z"/>
		</g>
	</g>
	<g>
		<g>
			<path fill="#4A555F" d="M170,39.9l-2.7-1.6l1.6-2.7l2.7,1.6L170,39.9z M164.7,36.6L162,35l1.6-2.7l2.7,1.6L164.7,36.6z
				 M159.3,33.3l-2.7-1.6l1.6-2.7l2.7,1.6L159.3,33.3z"/>
		</g>
	</g>
</g>
</svg>
