<?xml version="1.0" encoding="utf-8"?>
<!-- Generator: Adobe Illustrator 16.0.0, SVG Export Plug-In . SVG Version: 6.00 Build 0)  -->
<!DOCTYPE svg PUBLIC "-//W3C//DTD SVG 1.1//EN" "http://www.w3.org/Graphics/SVG/1.1/DTD/svg11.dtd">
<svg version="1.1" id="icons" xmlns="http://www.w3.org/2000/svg" xmlns:xlink="http://www.w3.org/1999/xlink" x="0px" y="0px"
	 width="64px" height="64px" viewBox="0 0 64 64" enable-background="new 0 0 64 64" xml:space="preserve">
<g>
	<g>
		<path fill="#CCD1D9" d="M14,43.5c-0.553,0-1-0.447-1-1v-7.999c0-0.553,0.447-1,1-1s1,0.447,1,1V42.5
			C15,43.053,14.553,43.5,14,43.5z"/>
	</g>
	<path fill="#545C66" d="M52.999,10.501c-0.553,0-1-0.447-1-1v-3c0-0.553,0.447-1,1-1s1,0.447,1,1v3
		C53.999,10.054,53.552,10.501,52.999,10.501z"/>
	<path fill="#E6E9ED" d="M46,7.5c0,0.55-0.45,1-1,1H35c-0.55,0-1-0.45-1-1v-2c0-0.55,0.45-1,1-1h10c0.55,0,1,0.45,1,1V7.5z"/>
	<path fill="#E6E9ED" d="M62,13.5c0.55,0,1,0.45,1,1v10c0,0.55-0.45,1-1,1h-3v-4v-4v-4H62z"/>
	<g>
		<path fill="#CCD1D9" d="M60,18.5h-1c-0.553,0-1-0.447-1-1s0.447-1,1-1h1c0.553,0,1,0.447,1,1S60.553,18.5,60,18.5z"/>
	</g>
	<g>
		<path fill="#CCD1D9" d="M60,22.5h-0.999c-0.553,0-1-0.447-1-1s0.447-1,1-1H60c0.553,0,1,0.447,1,1S60.553,22.5,60,22.5z"/>
	</g>
	<path fill="#AC92EC" d="M55,8.5h-1h-8h-5h-4h-3H14h-4c-2.21,0-4,1.79-4,4v18c0,2.21,1.79,4,4,4h4h4c2.21,0,4-1.79,4-4v-4
		c0-1.11,0.891-2,2-2h13c1.1,0,2,0.89,2,2v19h20v-20v-4v-4v-4v-1C59,10.29,57.21,8.5,55,8.5z"/>
	<circle fill="#E6E9ED" cx="49" cy="35.5" r="5"/>
	<path fill="#E6E9ED" d="M59,45.5v10c0,2.21-1.79,4-4,4H9c-4.42,0-8-3.58-8-8v-4c0-1.11,0.891-2,2-2h11h25H59z"/>
	<polygon fill="#656D78" points="43,4.5 41,8.5 37,8.5 39,4.5 	"/>
	<path fill="#967ADC" d="M53,13.5c0.55,0,1,0.45,1,1v3c0,0.55-0.45,1-1,1h-8c-0.55,0-1-0.45-1-1v-3c0-0.55,0.45-1,1-1H53z"/>
	<path fill="#E6E9ED" d="M28,14.5c1.1,0,2,0.9,2,2s-0.9,2-2,2s-2-0.9-2-2S26.9,14.5,28,14.5z"/>
	<path fill="#967ADC" d="M30,16.5c0-1.1-0.9-2-2-2h6c1.1,0,2,0.9,2,2s-0.9,2-2,2h-6C29.1,18.5,30,17.6,30,16.5z"/>
	<g>
		<path fill="#E6E9ED" d="M16,38.499h-2.001c-0.553,0-1-0.447-1-1s0.447-1,1-1H16c0.553,0,1,0.447,1,1S16.553,38.499,16,38.499z"/>
	</g>
	<g>
		<path fill="#967ADC" d="M49.03,28.5c-0.553,0-1.005-0.447-1.005-1s0.442-1,0.994-1h0.011c0.552,0,1,0.447,1,1
			S49.582,28.5,49.03,28.5z"/>
	</g>
	<g>
		<path fill="#CCD1D9" d="M49.03,33.499c-0.553,0-1.005-0.447-1.005-1s0.442-1,0.994-1h0.011c0.552,0,1,0.447,1,1
			S49.582,33.499,49.03,33.499z"/>
	</g>
	<g>
		<path fill="#967ADC" d="M45.03,29.572c-0.553,0-1.005-0.447-1.005-1s0.442-1,0.994-1h0.011c0.552,0,1,0.447,1,1
			S45.582,29.572,45.03,29.572z"/>
	</g>
	<g>
		<path fill="#967ADC" d="M42.102,32.5c-0.553,0-1.005-0.447-1.005-1s0.442-1,0.994-1h0.011c0.552,0,1,0.447,1,1
			S42.653,32.5,42.102,32.5z"/>
	</g>
	<g>
		<path fill="#967ADC" d="M55.957,32.5c-0.553,0-1.005-0.447-1.005-1s0.442-1,0.994-1h0.011c0.552,0,1,0.447,1,1
			S56.509,32.5,55.957,32.5z"/>
	</g>
	<g>
		<path fill="#967ADC" d="M53.028,29.572c-0.553,0-1.005-0.447-1.005-1s0.442-1,0.994-1h0.011c0.552,0,1,0.447,1,1
			S53.58,29.572,53.028,29.572z"/>
	</g>
	<path fill="#967ADC" d="M14,32.5c0.553,0,1-0.447,1-1v-23h-1h-1v23C13,32.053,13.447,32.5,14,32.5z"/>
	<g>
		<path fill="#656D78" d="M54,7.501h-2.001c-0.553,0-1-0.447-1-1s0.447-1,1-1H54c0.553,0,1,0.447,1,1S54.553,7.501,54,7.501z"/>
	</g>
	<g>
		<path fill="#E6E9ED" d="M18,42.499h-8c-0.553,0-1-0.447-1-1s0.447-1,1-1h8c0.553,0,1,0.447,1,1S18.553,42.499,18,42.499z"/>
	</g>
	<g>
		<path fill="#E6E9ED" d="M18,42.499c-0.256,0-0.512-0.098-0.707-0.293c-0.391-0.391-0.391-1.024,0-1.414l1-0.999
			c0.391-0.391,1.023-0.391,1.414,0s0.391,1.024,0,1.414l-1,0.999C18.512,42.401,18.256,42.499,18,42.499z"/>
	</g>
	<g>
		<path fill="#E6E9ED" d="M10,42.499c-0.256,0-0.512-0.098-0.707-0.293l-1-0.999c-0.391-0.39-0.391-1.023,0-1.414
			s1.023-0.391,1.414,0l1,0.999c0.391,0.39,0.391,1.023,0,1.414C10.512,42.401,10.256,42.499,10,42.499z"/>
	</g>
</g>
</svg>
