<?xml version="1.0" encoding="iso-8859-1"?>
<!-- Generator: Adobe Illustrator 19.0.0, SVG Export Plug-In . SVG Version: 6.00 Build 0)  -->
<svg xmlns="http://www.w3.org/2000/svg" xmlns:xlink="http://www.w3.org/1999/xlink" version="1.1" id="Layer_1" x="0px" y="0px" viewBox="0 0 512 512" style="enable-background:new 0 0 512 512;" xml:space="preserve">
<circle style="fill:#00C3FF;" cx="256" cy="256" r="247.409"/>
<path style="fill:#00AAF0;" d="M310.98,448.43C174.34,448.43,63.57,337.66,63.57,201.02c0-54.288,17.532-104.456,47.177-145.252  C48.862,100.739,8.591,173.648,8.591,256c0,136.64,110.77,247.409,247.409,247.409c82.352,0,155.261-40.272,200.233-102.157  C415.436,430.898,365.268,448.43,310.98,448.43z"/>
<path style="fill:#FFFFFF;" d="M301.817,329.306v-36.653h-192.43c-5.06,0-9.163-4.103-9.163-9.163v-54.98  c0-5.06,4.103-9.163,9.163-9.163h192.43v-36.653L430.103,256L301.817,329.306z"/>
<path d="M437.02,74.98C388.668,26.629,324.38,0,256,0S123.332,26.629,74.98,74.98C26.629,123.332,0,187.62,0,256  s26.629,132.668,74.98,181.02C123.332,485.371,187.62,512,256,512s132.668-26.629,181.02-74.98C485.371,388.668,512,324.38,512,256  S485.371,123.332,437.02,74.98z M256,494.819C124.315,494.819,17.181,387.685,17.181,256S124.315,17.181,256,17.181  S494.819,124.315,494.819,256S387.685,494.819,256,494.819z"/>
<path d="M434.365,248.541l-128.286-73.306c-2.659-1.52-5.925-1.509-8.575,0.029c-2.648,1.537-4.278,4.367-4.278,7.43v28.063h-9.736  c-4.744,0-8.591,3.846-8.591,8.591s3.846,8.591,8.591,8.591h18.327c4.744,0,8.591-3.846,8.591-8.591v-21.85L412.788,256  l-102.381,58.503v-21.85c0-4.744-3.846-8.591-8.591-8.591H155.204c-4.744,0-8.591,3.846-8.591,8.591  c0,4.744,3.846,8.591,8.591,8.591h138.022v28.063c0,3.062,1.63,5.893,4.278,7.43c1.333,0.773,2.822,1.16,4.313,1.16  c1.471,0,2.941-0.377,4.262-1.132l128.286-73.306c2.676-1.529,4.329-4.375,4.329-7.459S437.042,250.071,434.365,248.541z"/>
<path d="M118.55,284.063h-9.163c-0.316,0-0.573-0.257-0.573-0.573v-54.98c0-0.316,0.257-0.573,0.573-0.573h137.45  c4.744,0,8.591-3.846,8.591-8.591s-3.846-8.591-8.591-8.591h-137.45c-9.79,0-17.754,7.964-17.754,17.754v54.98  c0,9.79,7.964,17.754,17.754,17.754h9.163c4.744,0,8.591-3.846,8.591-8.591C127.141,287.909,123.295,284.063,118.55,284.063z"/>
<g>
</g>
<g>
</g>
<g>
</g>
<g>
</g>
<g>
</g>
<g>
</g>
<g>
</g>
<g>
</g>
<g>
</g>
<g>
</g>
<g>
</g>
<g>
</g>
<g>
</g>
<g>
</g>
<g>
</g>
</svg>
