<svg width="697" height="635" viewBox="0 0 697 635" fill="none" xmlns="http://www.w3.org/2000/svg">
<g clip-path="url(#clip0_1_221)">
<path fill-rule="evenodd" clip-rule="evenodd" d="M348.5 -0.000305176C540.971 -0.000305176 697 142.15 697 317.5C697 492.85 540.971 635 348.5 635C156.029 635 0 492.85 0 317.5C0 142.149 156.029 -0.000305176 348.5 -0.000305176V-0.000305176Z" fill="#79A7C0"/>
<path fill-rule="evenodd" clip-rule="evenodd" d="M501.455 230.786L888.032 582.975L888.393 583.363L888.743 583.76L889.08 584.163L889.41 584.572L889.73 584.991L890.036 585.415L890.332 585.846L890.618 586.287L890.894 586.733L891.156 587.183L891.408 587.642L891.646 588.107L891.871 588.578L892.085 589.056L892.289 589.536L892.477 590.026L892.653 590.516L892.817 591.015L892.967 591.52L893.103 592.026L893.229 592.541L893.338 593.055L893.433 593.579L893.515 594.103L893.579 594.633L893.634 595.167L893.671 595.703L893.692 596.243L893.702 596.788L507.122 244.597L507.115 244.054L507.095 243.513L507.057 242.976L507.003 242.443L506.938 241.914L506.857 241.388L506.761 240.867L506.652 240.35L506.526 239.837L506.39 239.329L506.24 238.826L506.077 238.327L505.9 237.834L505.713 237.347L505.509 236.865L505.294 236.388L505.07 235.917L504.832 235.453L504.58 234.994L504.318 234.542L504.042 234.096L503.756 233.657L503.46 233.225L503.154 232.8L502.834 232.382L502.504 231.971L502.167 231.569L501.816 231.173L501.455 230.786Z" fill="#1F73A2"/>
<path fill-rule="evenodd" clip-rule="evenodd" d="M447.172 193.195L833.749 545.384L834.11 545.787L834.385 546.246L834.559 546.754L834.617 547.3L448.04 195.11L447.982 194.564L447.809 194.056L447.533 193.596L447.172 193.195Z" fill="#1F73A2"/>
<path fill-rule="evenodd" clip-rule="evenodd" d="M537.275 228.391L923.852 580.582L924.308 581.137L924.706 581.732L925.039 582.364L925.305 583.028L925.502 583.719L925.621 584.436L925.662 585.174L539.086 232.984L539.045 232.246L538.926 231.529L538.729 230.837L538.463 230.174L538.13 229.542L537.731 228.947L537.275 228.391Z" fill="#1F73A2"/>
<path fill-rule="evenodd" clip-rule="evenodd" d="M448.04 195.11L834.617 547.3V575.661L448.04 223.472V195.11Z" fill="#1F73A2"/>
<path fill-rule="evenodd" clip-rule="evenodd" d="M507.122 279.404L893.702 631.592V722.824L507.122 370.635V279.404Z" fill="#1F73A2"/>
<path fill-rule="evenodd" clip-rule="evenodd" d="M531.16 312.415L917.736 664.604L916.926 664.567L916.14 664.459L915.381 664.279L914.653 664.037L913.958 663.733L913.305 663.37L912.696 662.955L912.131 662.49L911.62 661.978L525.044 309.787L525.554 310.3L526.119 310.766L526.728 311.181L527.382 311.544L528.076 311.848L528.805 312.089L529.563 312.269L530.35 312.378L531.16 312.415Z" fill="#1F73A2"/>
<path fill-rule="evenodd" clip-rule="evenodd" d="M507.122 244.597L893.702 596.788V610.964L507.122 258.774V244.597Z" fill="#1F73A2"/>
<path fill-rule="evenodd" clip-rule="evenodd" d="M523.233 279.404L909.81 631.592H893.702L507.122 279.404H523.233Z" fill="#1F73A2"/>
<path fill-rule="evenodd" clip-rule="evenodd" d="M507.122 370.635L893.702 722.824V723.494L507.122 371.304V370.635Z" fill="#1F73A2"/>
<path fill-rule="evenodd" clip-rule="evenodd" d="M507.122 371.304L893.702 723.494L900.45 733.574L513.871 381.384L507.122 371.304Z" fill="#1F73A2"/>
<path fill-rule="evenodd" clip-rule="evenodd" d="M513.888 381.375L900.464 733.565L900.692 733.924L900.893 734.29L901.066 734.659L901.22 735.037L901.345 735.416L901.448 735.8L901.529 736.188L901.584 736.575L515.007 384.386L514.95 383.998L514.871 383.611L514.769 383.226L514.643 382.845L514.49 382.47L514.313 382.098L514.116 381.732L513.888 381.375Z" fill="#1F73A2"/>
<path fill-rule="evenodd" clip-rule="evenodd" d="M515.007 384.386L901.584 736.575L901.594 736.678L901.604 736.78L901.611 736.882L901.618 736.984L901.621 737.087L901.625 737.189V737.291V737.394L515.048 385.201V385.099V384.997L515.045 384.894L515.041 384.792L515.035 384.693L515.028 384.587L515.018 384.488L515.007 384.386Z" fill="#1F73A2"/>
<path fill-rule="evenodd" clip-rule="evenodd" d="M515.048 385.201L901.625 737.394V737.543L515.048 385.353V385.201Z" fill="#1F73A2"/>
<path fill-rule="evenodd" clip-rule="evenodd" d="M515.048 385.353L901.625 737.543V773.661L515.048 421.472V385.353Z" fill="#1F73A2"/>
<path fill-rule="evenodd" clip-rule="evenodd" d="M235.885 214.119L622.46 566.31L622.239 566.111L621.994 565.947L621.729 565.82L235.151 213.63L235.417 213.757L235.663 213.921L235.885 214.119Z" fill="#1F73A2"/>
<path fill-rule="evenodd" clip-rule="evenodd" d="M235.151 213.63L621.729 565.82L621.62 565.779L621.508 565.745L621.395 565.717L621.28 565.693L621.16 565.674L621.041 565.659L620.922 565.652L620.803 565.649L234.225 213.459L234.345 213.461L234.466 213.47L234.584 213.483L234.702 213.502L234.817 213.526L234.931 213.556L235.043 213.59L235.151 213.63Z" fill="#1F73A2"/>
<path fill-rule="evenodd" clip-rule="evenodd" d="M234.225 213.459L620.803 565.649L620.691 565.652L620.582 565.659L620.473 565.671L620.364 565.686L620.255 565.708L620.15 565.736L620.048 565.767L619.945 565.801L233.368 213.612L233.47 213.576L233.574 213.545L233.679 213.519L233.787 213.497L233.895 213.48L234.004 213.468L234.114 213.461L234.225 213.459Z" fill="#1F73A2"/>
<path fill-rule="evenodd" clip-rule="evenodd" d="M159.153 400.785L545.729 752.974L545.481 752.952L545.246 752.887L545.038 752.782L544.855 752.646L158.276 400.453L158.46 400.593L158.67 400.695L158.903 400.76L159.153 400.785Z" fill="#1F73A2"/>
<path fill-rule="evenodd" clip-rule="evenodd" d="M182.341 442.596L568.919 794.789L568.32 794.779L567.728 794.761L567.139 794.727L566.554 794.677L565.972 794.618L565.393 794.544L564.822 794.457L564.253 794.358L563.692 794.246L563.134 794.119L562.582 793.983L562.034 793.834L561.493 793.676L560.959 793.502L560.428 793.319L559.907 793.124L559.39 792.916L558.88 792.699L558.376 792.469L557.879 792.231L557.392 791.98L556.909 791.722L556.436 791.449L555.97 791.17L555.51 790.879L555.058 790.581L554.615 790.271L554.183 789.952L167.606 437.762L168.04 438.082L168.482 438.392L168.933 438.689L169.391 438.981L169.858 439.26L170.332 439.53L170.814 439.79L171.303 440.041L171.8 440.28L172.303 440.51L172.813 440.727L173.329 440.931L173.853 441.127L174.382 441.313L174.917 441.483L175.459 441.644L176.005 441.793L176.558 441.93L177.115 442.054L177.678 442.168L178.245 442.268L178.818 442.354L179.395 442.429L179.976 442.488L180.562 442.537L181.151 442.571L181.744 442.59L182.341 442.596Z" fill="#1F73A2"/>
<path fill-rule="evenodd" clip-rule="evenodd" d="M230.289 344.705L616.865 696.897V705.852L230.289 353.662V344.705Z" fill="#1F73A2"/>
<path fill-rule="evenodd" clip-rule="evenodd" d="M272.687 296.574L659.264 648.764V689.676L272.687 337.483V296.574Z" fill="#1F73A2"/>
<path fill-rule="evenodd" clip-rule="evenodd" d="M233.368 213.612L619.945 565.801L619.894 565.823L233.318 213.634L233.368 213.612Z" fill="#1F73A2"/>
<path fill-rule="evenodd" clip-rule="evenodd" d="M272.687 337.483L659.264 689.676L659.223 690.414L659.101 691.13L658.907 691.821L658.641 692.485L658.308 693.117L657.909 693.713L657.453 694.268L656.943 694.779L656.378 695.247L655.769 695.663L655.115 696.023L654.421 696.326L653.693 696.571L652.934 696.748L652.148 696.857L651.338 696.897L264.76 344.705L265.571 344.667L266.357 344.559L267.117 344.382L267.845 344.137L268.538 343.833L269.192 343.474L269.802 343.055L270.365 342.59L270.876 342.078L271.333 341.52L271.73 340.925L272.063 340.296L272.33 339.632L272.525 338.941L272.645 338.221L272.687 337.483Z" fill="#1F73A2"/>
<path fill-rule="evenodd" clip-rule="evenodd" d="M188.457 279.204L575.035 631.394L574.28 631.344L573.528 631.313L572.775 631.307L572.023 631.323L571.271 631.36L570.516 631.419L569.764 631.496L569.011 631.599L568.259 631.72L567.504 631.865L566.752 632.03L565.999 632.216L565.247 632.42L564.495 632.647L563.74 632.898L562.987 633.164L176.411 280.975L177.164 280.706L177.917 280.458L178.67 280.231L179.422 280.024L180.176 279.839L180.928 279.674L181.681 279.531L182.434 279.408L183.187 279.308L183.94 279.228L184.693 279.17L185.446 279.133L186.198 279.118L186.952 279.125L187.704 279.153L188.457 279.204Z" fill="#1F73A2"/>
<path fill-rule="evenodd" clip-rule="evenodd" d="M266.821 383.676L653.397 735.865L653.55 736.033L653.662 736.225L653.734 736.436L653.761 736.665L267.183 384.473L267.158 384.246L267.086 384.035L266.972 383.843L266.821 383.676Z" fill="#1F73A2"/>
<path fill-rule="evenodd" clip-rule="evenodd" d="M214.436 344.705L601.013 696.897H582.962L196.383 344.705H214.436Z" fill="#1F73A2"/>
<path fill-rule="evenodd" clip-rule="evenodd" d="M219.39 360.359L605.968 712.549L605.434 712.332L604.92 712.078L604.43 711.792L603.967 711.476L603.531 711.132L216.954 358.942L217.391 359.287L217.854 359.603L218.343 359.888L218.856 360.139L219.39 360.359Z" fill="#1F73A2"/>
<path fill-rule="evenodd" clip-rule="evenodd" d="M196.383 344.705L582.962 696.897L582.148 696.857L581.362 696.748L580.603 696.571L579.875 696.327L579.181 696.023L578.527 695.663L577.918 695.248L191.342 343.055L191.951 343.474L192.605 343.833L193.298 344.137L194.026 344.382L194.786 344.559L195.573 344.667L196.383 344.705Z" fill="#1F73A2"/>
<path fill-rule="evenodd" clip-rule="evenodd" d="M222.363 374.216L608.939 726.408L608.34 726.353L607.782 726.194L607.278 725.946L606.836 725.615L220.261 373.425L220.701 373.754L221.206 374.005L221.764 374.163L222.363 374.216Z" fill="#1F73A2"/>
<path fill-rule="evenodd" clip-rule="evenodd" d="M225.335 360.359L611.91 712.549V723.698L225.335 371.509V360.359Z" fill="#1F73A2"/>
<path fill-rule="evenodd" clip-rule="evenodd" d="M230.289 353.662L616.865 705.852L616.842 706.416L616.77 706.968L616.658 707.504L616.501 708.028L616.3 708.533L616.062 709.02L615.79 709.489L615.477 709.935L615.133 710.36L614.755 710.76L614.347 711.132L613.911 711.476L613.448 711.792L612.958 712.078L612.444 712.332L611.91 712.549L225.335 360.359L225.869 360.139L226.381 359.888L226.871 359.603L227.334 359.287L227.771 358.942L228.179 358.567L228.556 358.17L228.901 357.746L229.212 357.299L229.487 356.831L229.725 356.344L229.923 355.836L230.08 355.315L230.195 354.775L230.265 354.226L230.289 353.662Z" fill="#1F73A2"/>
<path fill-rule="evenodd" clip-rule="evenodd" d="M225.335 371.509L611.91 723.699L611.852 724.244L611.679 724.753L611.403 725.215L611.042 725.615L610.6 725.946L610.096 726.194L609.538 726.353L608.939 726.408L222.363 374.216L222.962 374.163L223.519 374.005L224.024 373.754L224.464 373.425L224.827 373.022L225.101 372.563L225.275 372.055L225.335 371.509Z" fill="#1F73A2"/>
<path fill-rule="evenodd" clip-rule="evenodd" d="M176.411 280.975L562.987 633.164L562.491 633.143L562.007 633.075L561.541 632.966L561.092 632.817L560.666 632.628L560.265 632.408L559.89 632.151L559.543 631.865L172.967 279.676L173.313 279.962L173.688 280.217L174.09 280.439L174.515 280.627L174.963 280.776L175.429 280.885L175.913 280.952L176.411 280.975Z" fill="#1F73A2"/>
<path fill-rule="evenodd" clip-rule="evenodd" d="M264.76 344.705L651.338 696.897H616.865L230.289 344.705H264.76Z" fill="#1F73A2"/>
<path fill-rule="evenodd" clip-rule="evenodd" d="M233.318 213.634L619.894 565.823L619.625 565.962L619.374 566.142L619.149 566.365L618.952 566.638L618.792 566.951L618.669 567.314L618.594 567.723L618.567 568.179L231.99 215.99L232.016 215.533L232.093 215.124L232.214 214.762L232.375 214.447L232.571 214.177L232.796 213.952L233.047 213.771L233.318 213.634Z" fill="#1F73A2"/>
<path fill-rule="evenodd" clip-rule="evenodd" d="M231.99 215.99L618.567 568.179V570.747L231.99 218.556V215.99Z" fill="#1F73A2"/>
<path fill-rule="evenodd" clip-rule="evenodd" d="M231.99 218.556L618.567 570.747L618.54 570.982L618.465 571.202L618.346 571.401L618.189 571.574L617.999 571.72L617.781 571.829L617.539 571.897L617.277 571.919L230.702 219.73L230.961 219.706L231.203 219.637L231.421 219.529L231.612 219.386L231.77 219.212L231.889 219.013L231.963 218.793L231.99 218.556Z" fill="#1F73A2"/>
<path fill-rule="evenodd" clip-rule="evenodd" d="M230.702 219.73L617.277 571.919L617.018 571.897L616.777 571.829L616.559 571.72L616.368 571.574L229.791 219.386L229.981 219.529L230.2 219.637L230.442 219.706L230.702 219.73Z" fill="#1F73A2"/>
<path fill-rule="evenodd" clip-rule="evenodd" d="M237.549 212.306L624.125 564.496L624.36 564.713L624.581 564.948L624.782 565.2L624.965 565.469L625.125 565.758L625.268 566.058L625.387 566.381L625.483 566.716L625.551 567.069L625.592 567.438L625.609 567.823L239.031 215.634L239.016 215.248L238.974 214.879L238.905 214.526L238.81 214.19L238.692 213.869L238.55 213.566L238.388 213.28L238.205 213.011L238.003 212.758L237.784 212.523L237.549 212.306Z" fill="#1F73A2"/>
<path fill-rule="evenodd" clip-rule="evenodd" d="M239.031 215.634L625.609 567.823V575.661L239.031 223.472V215.634Z" fill="#1F73A2"/>
<path fill-rule="evenodd" clip-rule="evenodd" d="M372.085 296.574L758.665 648.763H659.264L272.687 296.574H372.085Z" fill="#1F73A2"/>
<path fill-rule="evenodd" clip-rule="evenodd" d="M515.048 421.472L901.625 773.661L901.618 774.145L901.601 774.623L901.574 775.1L901.529 775.574L901.478 776.046L901.413 776.514L901.339 776.979L901.254 777.441L901.155 777.897L901.046 778.353L900.927 778.805L900.798 779.252L900.658 779.695L900.508 780.135L900.348 780.569L900.178 781L513.602 428.811L513.772 428.38L513.932 427.943L514.082 427.506L514.221 427.062L514.351 426.613L514.47 426.163L514.579 425.707L514.677 425.248L514.762 424.79L514.837 424.325L514.902 423.856L514.953 423.385L514.994 422.911L515.024 422.433L515.041 421.953L515.048 421.472Z" fill="#1F73A2"/>
<path fill-rule="evenodd" clip-rule="evenodd" d="M491.861 442.596L878.438 794.789H568.919L182.341 442.596H491.861Z" fill="#1F73A2"/>
<path fill-rule="evenodd" clip-rule="evenodd" d="M513.602 428.811L900.178 781L899.95 781.537L899.705 782.064L899.446 782.585L899.174 783.099L898.885 783.605L898.582 784.104L898.265 784.591L897.935 785.075L897.592 785.546L897.234 786.008L896.863 786.464L896.479 786.907L896.081 787.344L895.672 787.769L895.254 788.181L894.821 788.588L508.242 436.398L508.674 435.992L509.096 435.576L509.504 435.152L509.902 434.718L510.284 434.274L510.655 433.818L511.015 433.357L511.359 432.882L511.689 432.402L512.006 431.912L512.309 431.416L512.598 430.91L512.87 430.395L513.129 429.875L513.374 429.344L513.602 428.811Z" fill="#1F73A2"/>
<path fill-rule="evenodd" clip-rule="evenodd" d="M508.242 436.398L894.821 788.588L894.42 788.941L894.015 789.288L893.596 789.623L893.171 789.952L892.739 790.271L892.296 790.581L891.847 790.879L891.387 791.17L890.921 791.449L890.445 791.722L889.965 791.98L889.475 792.231L888.978 792.47L888.474 792.699L887.964 792.916L887.446 793.124L886.926 793.319L886.395 793.502L885.86 793.673L885.319 793.834L884.771 793.983L884.22 794.119L883.662 794.246L883.1 794.358L882.532 794.457L881.96 794.544L881.382 794.618L880.803 794.677L880.218 794.727L879.626 794.761L879.033 794.779L878.438 794.789L491.861 442.596L492.457 442.59L493.049 442.571L493.638 442.537L494.223 442.488L494.805 442.429L495.384 442.354L495.956 442.268L496.524 442.168L497.086 442.054L497.644 441.93L498.195 441.793L498.743 441.644L499.284 441.483L499.818 441.313L500.349 441.127L500.87 440.931L501.387 440.727L501.898 440.51L502.402 440.28L502.898 440.041L503.388 439.79L503.868 439.53L504.341 439.26L504.811 438.981L505.267 438.69L505.72 438.389L506.162 438.082L506.594 437.762L507.02 437.434L507.438 437.099L507.843 436.752L508.242 436.398Z" fill="#1F73A2"/>
<path fill-rule="evenodd" clip-rule="evenodd" d="M539.086 232.984L925.662 585.174V657.383L539.086 305.194V232.984Z" fill="#1F73A2"/>
<path fill-rule="evenodd" clip-rule="evenodd" d="M539.086 305.194L925.662 657.383L925.621 658.121L925.502 658.84L925.305 659.532L925.039 660.195L924.706 660.825L924.308 661.42L923.852 661.978L923.341 662.49L922.78 662.955L922.167 663.37L921.514 663.733L920.823 664.037L920.094 664.279L919.335 664.459L918.546 664.567L917.736 664.604L531.16 312.415L531.97 312.378L532.756 312.269L533.518 312.089L534.246 311.848L534.937 311.544L535.591 311.181L536.2 310.766L536.765 310.3L537.275 309.787L537.731 309.231L538.13 308.635L538.463 308.004L538.729 307.341L538.926 306.649L539.045 305.932L539.086 305.194Z" fill="#1F73A2"/>
<path fill-rule="evenodd" clip-rule="evenodd" d="M500.319 229.672C504.518 233.497 507.124 238.781 507.124 244.598V258.774H523.234V232.984C523.234 228.996 526.783 225.763 531.161 225.763C535.538 225.763 539.087 228.996 539.087 232.984V305.194C539.087 309.181 535.538 312.415 531.161 312.415C526.783 312.415 523.234 309.181 523.234 305.194V279.404H507.124V370.634V371.303L513.873 381.383L513.89 381.374C514.524 382.322 514.89 383.349 515.008 384.384C515.039 384.657 515.053 384.93 515.05 385.202V385.353V421.472C515.05 424.049 514.537 426.522 513.602 428.81C512.426 431.685 510.582 434.267 508.244 436.397C504.045 440.223 498.246 442.598 491.861 442.598H182.342C175.957 442.598 170.158 440.223 165.959 436.397C163.621 434.267 161.777 431.685 160.601 428.81C159.666 426.522 159.154 424.049 159.154 421.472V400.784C158.469 400.784 157.915 400.279 157.915 399.656C157.915 399.033 158.469 398.528 159.154 398.528V391.695C159.154 387.707 162.702 384.474 167.08 384.474H243.088H264.707C264.707 383.85 265.262 383.345 265.946 383.345C266.63 383.345 267.184 383.85 267.184 384.474H291.412H372.088V384.384V372.573V370.634V296.574H272.688V337.484C272.688 341.472 269.139 344.705 264.761 344.705H230.29V353.662C230.29 356.693 228.24 359.287 225.336 360.359V371.509C225.336 373.005 224.005 374.217 222.364 374.217C220.722 374.217 219.391 373.005 219.391 371.509V360.359C216.486 359.287 214.437 356.693 214.437 353.662V344.705H196.384C192.007 344.705 188.458 341.472 188.458 337.484V279.204C184.443 278.876 180.427 279.486 176.412 280.975C173.722 280.975 171.541 278.988 171.541 276.538C171.541 274.087 173.722 272.1 176.412 272.1C180.631 271.51 184.628 271.528 188.458 272.002V244.598C188.458 238.781 191.064 233.497 195.263 229.672C199.462 225.846 205.262 223.472 211.647 223.472H234.928H236.455V215.634C236.455 214.601 235.883 213.92 235.152 213.63C234.866 213.517 234.549 213.459 234.226 213.459C233.93 213.459 233.638 213.51 233.369 213.612L233.319 213.634C232.574 213.943 231.991 214.707 231.991 215.99V218.556C231.991 219.204 231.414 219.73 230.702 219.73C229.991 219.73 229.415 219.204 229.415 218.556V215.99C229.415 213.633 230.66 212.157 232.252 211.497L232.328 211.469C232.932 211.23 233.581 211.112 234.226 211.112C234.888 211.112 235.556 211.238 236.179 211.484C237.78 212.12 239.032 213.535 239.032 215.634V223.472H240.872H442.098V195.11C442.098 193.614 443.429 192.402 445.071 192.402C446.712 192.402 448.043 193.614 448.043 195.11V223.472H483.935C490.321 223.472 496.12 225.846 500.319 229.672L500.319 229.672Z" fill="#1F73A2"/>
<path d="M229.413 218.556C229.413 219.204 229.99 219.73 230.701 219.73C231.412 219.73 231.99 219.204 231.99 218.556V215.99C231.99 214.707 232.573 213.943 233.318 213.634L233.368 213.612C233.637 213.51 233.929 213.459 234.225 213.459C234.547 213.459 234.866 213.517 235.151 213.63C235.882 213.92 236.454 214.601 236.454 215.633V223.688C236.454 224.336 237.031 224.862 237.742 224.862C238.453 224.862 239.031 224.336 239.031 223.688V215.633C239.031 213.536 237.778 212.12 236.178 211.484C235.556 211.238 234.887 211.112 234.225 211.112C233.58 211.112 232.931 211.23 232.327 211.469L232.251 211.497C230.659 212.157 229.413 213.633 229.413 215.99V218.556V218.556Z" fill="#FFFFFE"/>
<path d="M448.04 195.11C448.04 193.614 446.709 192.402 445.068 192.402C443.427 192.402 442.096 193.614 442.096 195.11V224.397C442.096 225.893 443.427 227.106 445.068 227.106C446.709 227.106 448.04 225.893 448.04 224.397V195.11Z" fill="#FFFFFE"/>
<path d="M225.335 342.221C225.335 340.725 224.004 339.513 222.363 339.513C220.721 339.513 219.39 340.725 219.39 342.221V371.509C219.39 373.004 220.721 374.217 222.363 374.217C224.004 374.217 225.335 373.004 225.335 371.509V342.221Z" fill="#FFFFFE"/>
<path d="M176.411 272.1C173.722 272.1 171.541 274.087 171.541 276.538C171.541 278.988 173.722 280.975 176.411 280.975C182.149 278.848 187.886 278.514 193.624 280.148C195.813 280.148 197.588 278.532 197.588 276.538C197.588 274.544 195.813 272.927 193.624 272.927C188.245 271.672 182.564 271.24 176.411 272.1V272.1ZM175.43 275.019C176.391 275.019 177.171 275.729 177.171 276.605C177.171 277.481 176.391 278.192 175.43 278.192C174.468 278.192 173.688 277.481 173.688 276.605C173.688 275.729 174.468 275.019 175.43 275.019Z" fill="#FFFFFE"/>
<path d="M230.289 339.775C230.289 335.787 226.74 332.554 222.363 332.554C217.985 332.554 214.436 335.787 214.436 339.775V353.662C214.436 357.65 217.985 360.883 222.363 360.883C226.74 360.883 230.289 357.65 230.289 353.662V339.775Z" fill="#FFA726"/>
<path d="M499.454 258.774C495.077 258.774 491.528 263.393 491.528 269.089C491.528 274.785 495.077 279.404 499.454 279.404H528.219C532.596 279.404 536.145 274.785 536.145 269.089C536.145 263.393 532.596 258.774 528.219 258.774H499.454Z" fill="#FFA726"/>
<path d="M211.646 223.472H483.934C490.32 223.472 496.119 225.846 500.318 229.672C504.517 233.497 507.123 238.781 507.123 244.598V371.303L513.872 381.383L507.123 385.135L513.889 381.374C514.69 382.571 515.064 383.897 515.049 385.202V421.472C515.049 427.289 512.442 432.572 508.243 436.397C504.044 440.223 498.245 442.598 491.86 442.598H182.341C175.956 442.598 170.157 440.223 165.958 436.397C161.759 432.572 159.153 427.289 159.153 421.472V391.695C159.153 387.707 162.701 384.474 167.079 384.474H243.087H291.411H372.087V296.574H272.687V337.484C272.687 341.472 269.138 344.705 264.76 344.705H196.383C192.006 344.705 188.457 341.472 188.457 337.484V244.598C188.457 238.781 191.063 233.497 195.262 229.672C199.461 225.847 205.261 223.472 211.646 223.472L211.646 223.472Z" fill="#FFCC80"/>
<path d="M507.122 370.635V371.304L513.871 381.384L507.121 385.136L513.887 381.375C514.689 382.572 515.062 383.898 515.047 385.203V385.354H372.146V372.574H372.085V370.635H507.122H507.122Z" fill="#F6AF69"/>
<path d="M508.473 384.386L507.124 385.136L508.473 384.386H515.008C515.039 384.659 515.053 384.932 515.05 385.204V421.473C515.05 427.29 512.443 432.573 508.244 436.399C504.046 440.224 498.246 442.599 491.861 442.599H182.343C175.957 442.599 170.158 440.225 165.96 436.399C161.761 432.573 159.154 427.29 159.154 421.473V391.696C159.154 387.708 162.703 384.475 167.08 384.475H243.088H291.412H372.088V384.386H508.473L508.473 384.386Z" fill="#FF5722"/>
<path d="M159.153 399.656V391.695C159.153 387.707 162.701 384.474 167.079 384.474H243.087H265.945V399.656H159.153H159.153Z" fill="#FFCC80"/>
<path d="M267.183 384.473C267.183 383.849 266.629 383.344 265.945 383.344C265.261 383.344 264.706 383.849 264.706 384.473V398.527H159.153C158.468 398.527 157.914 399.032 157.914 399.655C157.914 400.278 158.468 400.783 159.153 400.783H265.945C266.629 400.783 267.183 400.278 267.183 399.655V384.473H267.183Z" fill="#BF360C"/>
<path d="M379.531 384.386H497.375V395.954H379.531V384.386Z" fill="#F44917"/>
<path d="M513.602 428.811C512.426 431.686 510.582 434.268 508.244 436.398C504.045 440.224 498.246 442.599 491.861 442.599H182.342C175.957 442.599 170.158 440.224 165.959 436.398C163.621 434.268 161.777 431.686 160.601 428.811H513.603H513.602Z" fill="#F24615"/>
<path fill-rule="evenodd" clip-rule="evenodd" d="M406.819 258.105H473.2C474.957 258.105 476.563 258.763 477.735 259.825L477.744 259.833L477.752 259.826C477.869 259.932 477.977 260.044 478.076 260.16C479.05 261.192 479.64 262.525 479.64 263.971V288.343C479.64 289.943 478.917 291.406 477.751 292.475L477.742 292.483L477.75 292.49C477.633 292.597 477.51 292.695 477.383 292.785C476.251 293.672 474.787 294.21 473.2 294.21H406.819C405.063 294.21 403.456 293.551 402.284 292.489L402.275 292.481L402.267 292.488C402.149 292.381 402.041 292.269 401.941 292.152C400.968 291.121 400.379 289.788 400.379 288.343V263.971C400.379 262.37 401.103 260.908 402.268 259.839L402.277 259.832L402.269 259.824C402.386 259.717 402.51 259.618 402.638 259.527C403.77 258.641 405.233 258.105 406.819 258.105V258.105Z" fill="#263238"/>
<path fill-rule="evenodd" clip-rule="evenodd" d="M240.871 317.677V223.471H234.927V317.677C234.927 319.172 236.258 320.385 237.899 320.385C239.54 320.385 240.871 319.172 240.871 317.677V317.677Z" fill="#FFA726"/>
<path d="M539.086 232.984C539.086 228.996 535.537 225.763 531.16 225.763C526.783 225.763 523.234 228.996 523.234 232.984V305.194C523.234 309.181 526.783 312.415 531.16 312.415C535.537 312.415 539.086 309.181 539.086 305.194V232.984Z" fill="#FF3D00"/>
<path d="M469.41 282.738L469.41 269.575L460.451 269.575L460.451 282.738L469.41 282.738Z" fill="#00C853"/>
<path d="M452.798 282.738L452.798 269.575L443.84 269.575L443.84 282.738L452.798 282.738Z" fill="#EEFF41"/>
<path d="M436.183 282.738L436.183 269.575L427.225 269.575L427.225 282.738L436.183 282.738Z" fill="#00BCD4"/>
<path d="M419.568 282.738L419.568 269.575L410.61 269.575L410.61 282.738L419.568 282.738Z" fill="#FF5722"/>
<path d="M419.007 313.348L419.007 357.039L424.425 357.039L424.425 313.348L419.007 313.348Z" fill="#263238"/>
<path fill-rule="evenodd" clip-rule="evenodd" d="M418.169 333.53L418.976 329.667V326.439L418.169 322.576H425.262L424.459 326.439V329.667L425.262 333.53H418.169Z" fill="#FF9800"/>
<path fill-rule="evenodd" clip-rule="evenodd" d="M418.169 333.53L418.942 329.816H424.489L425.262 333.53H418.169Z" fill="#F38A08"/>
<path fill-rule="evenodd" clip-rule="evenodd" d="M418.976 326.467V326.439L418.169 322.576H425.262L424.459 326.439V326.467H418.976Z" fill="#F38A08"/>
<path d="M403.27 313.348L403.27 357.039L408.688 357.039L408.688 313.348L403.27 313.348Z" fill="#263238"/>
<path fill-rule="evenodd" clip-rule="evenodd" d="M402.429 347.03L403.236 343.167V339.939L402.429 336.076H409.525L408.718 339.939V343.167L409.525 347.03H402.429Z" fill="#FF9800"/>
<path fill-rule="evenodd" clip-rule="evenodd" d="M402.429 347.03L403.205 343.315H408.749L409.525 347.03H402.429Z" fill="#F38A08"/>
<path fill-rule="evenodd" clip-rule="evenodd" d="M403.236 339.964V339.939L402.429 336.076H409.525L408.718 339.939V339.964H403.236Z" fill="#F38A08"/>
<path fill-rule="evenodd" clip-rule="evenodd" d="M456.484 315.562C462.878 315.562 468.668 317.924 472.859 321.742C477.05 325.56 479.642 330.835 479.642 336.66C479.642 342.486 477.05 347.761 472.859 351.579C468.668 355.397 462.878 357.758 456.484 357.758C450.09 357.758 444.3 355.397 440.109 351.579C435.918 347.761 433.326 342.486 433.326 336.66C433.326 330.835 435.918 325.56 440.109 321.742C444.3 317.924 450.09 315.562 456.484 315.562Z" fill="#006064"/>
<path fill-rule="evenodd" clip-rule="evenodd" d="M466.258 327.757C463.757 325.478 460.302 324.069 456.484 324.069C452.667 324.069 449.211 325.478 446.71 327.757C444.209 330.035 442.662 333.184 442.662 336.662C442.662 340.139 444.209 343.287 446.71 345.566C449.211 347.845 452.667 349.254 456.484 349.254C460.302 349.254 463.757 347.845 466.258 345.566C468.759 343.287 470.306 340.139 470.306 336.662C470.306 333.184 468.759 330.035 466.258 327.757Z" fill="#0097A7"/>
<path d="M452.07 328.486C452.837 328.486 453.459 327.919 453.459 327.22C453.459 326.522 452.837 325.955 452.07 325.955C451.303 325.955 450.681 326.522 450.681 327.22C450.681 327.919 451.303 328.486 452.07 328.486Z" fill="#DD2C00"/>
</g>
<defs>
<clipPath id="clip0_1_221">
<rect width="697" height="635" fill="white"/>
</clipPath>
</defs>
</svg>
