<?xml version="1.0" encoding="utf-8"?>
<!-- Generator: Adobe Illustrator 16.0.0, SVG Export Plug-In . SVG Version: 6.00 Build 0)  -->
<!DOCTYPE svg PUBLIC "-//W3C//DTD SVG 1.1//EN" "http://www.w3.org/Graphics/SVG/1.1/DTD/svg11.dtd">
<svg version="1.1" xmlns="http://www.w3.org/2000/svg" xmlns:xlink="http://www.w3.org/1999/xlink" x="0px" y="0px" width="64px"
	 height="64px" viewBox="0 0 64 64" enable-background="new 0 0 64 64" xml:space="preserve">
<g id="_x35_0_badge_x2C__handmade_x2C__craft_x2C__artisan_x2C__workshop_x2C__hobby">
</g>
<g id="_x34_9_bag_x2C__needle_x2C__thread_x2C__handmade_x2C__craft_x2C__artisan_x2C__workshop">
</g>
<g id="_x34_8_yarn_x2C__thread_x2C__handmade_x2C__craft_x2C__artisan_x2C__workshop_x2C__hobby">
</g>
<g id="_x34_7_woodburning_x2C__board_x2C__wood_x2C__handmade_x2C__craft_x2C__artisan_x2C__workshop">
</g>
<g id="_x34_6_beads_x2C__needle_x2C__sewing_x2C__handmade_x2C__craft_x2C__artisan_x2C__workshop">
</g>
<g id="_x34_5_palette_x2C__paint_x2C__brush_x2C__handmade_x2C__craft_x2C__artisan_x2C__workshop">
</g>
<g id="_x34_4_paint_x2C__painting_x2C__handmade_x2C__craft_x2C__artisan_x2C__workshop_x2C__hobby">
</g>
<g id="_x34_3_glue_x2C__gun_x2C__handmade_x2C__craft_x2C__artisan_x2C__workshop_x2C__hobby">
</g>
<g id="_x34_2_tin_x2C__paint_x2C__handmade_x2C__craft_x2C__artisan_x2C__workshop_x2C__hobby">
</g>
<g id="_x34_1_easel_x2C__picture_x2C__painting_x2C__handmade_x2C__craft_x2C__artisan_x2C__workshop">
</g>
<g id="_x34_0_figured_x2C__forging_x2C__gate_x2C__blacksmith_x2C__handmade_x2C__craft_x2C__artisan">
</g>
<g id="_x33_9_sword_x2C__anvil_x2C__hammer_x2C__blacksmith_x2C__handmade_x2C__craft_x2C__artisan">
</g>
<g id="_x33_8_anvil_x2C__hammer_x2C__blacksmith_x2C__handmade_x2C__craft_x2C__artisan_x2C__workshop">
</g>
<g id="_x33_7_painting_x2C__dish_x2C__plate_x2C__brush_x2C__handmade_x2C__craft_x2C__artisan">
</g>
<g id="_x33_6_shoemaking_x2C__shoes_x2C__hammer_x2C__handmade_x2C__craft_x2C__artisan_x2C__workshop">
</g>
<g id="_x33_5_furniture_x2C__manufacturing_x2C__jack_x2C__plane_x2C__handmade_x2C__craft_x2C__artisan">
</g>
<g id="_x33_4_poster_x2C__picture_x2C__wall_x2C__handmade_x2C__craft_x2C__artisan_x2C__workshop">
</g>
<g id="_x33_3_scrapbooking_x2C__book_x2C__design_x2C__handmade_x2C__craft_x2C__artisan_x2C__workshop">
</g>
<g id="_x33_2_sculpture_x2C__bust_x2C__handmade_x2C__craft_x2C__artisan_x2C__workshop_x2C__hobby">
</g>
<g id="_x33_1_teddy_x2C__bir_x2C__sewing_x2C__handmade_x2C__craft_x2C__artisan_x2C__workshop">
</g>
<g id="_x33_0_scissors_x2C__cloth_x2C__handmade_x2C__craft_x2C__artisan_x2C__workshop_x2C__hobby">
</g>
<g id="_x32_9_yarn_x2C__thread_x2C__handmade_x2C__craft_x2C__artisan_x2C__workshop_x2C__hobby">
</g>
<g id="_x32_8_aerosol_x2C__can_x2C__paint_x2C__handmade_x2C__craft_x2C__artisan_x2C__workshop">
</g>
<g id="_x32_7_cloth_x2C__fabric_x2C__roll_x2C__handmade_x2C__craft_x2C__artisan_x2C__workshop">
</g>
<g id="_x32_6_mannequin_x2C__sewing_x2C__handmade_x2C__craft_x2C__artisan_x2C__workshop_x2C__hobby">
</g>
<g id="_x32_5_pincushion_x2C__pin_x2C__needle_x2C__thread_x2C__handmade_x2C__craft_x2C__artisan">
</g>
<g id="_x32_4_sewing_x2C__machine_x2C__cloth_x2C__handmade_x2C__craft_x2C__artisan_x2C__workshop">
	<g>
		<g>
			<path fill="#AAB2BD" d="M16,39.5h-2.001c-0.553,0-1-0.447-1-1s0.447-1,1-1H16c0.553,0,1,0.447,1,1S16.553,39.5,16,39.5z"/>
		</g>
		<g>
			<path fill="#CCD1D9" d="M14,43.5c-0.553,0-1-0.447-1-1v-7.999c0-0.553,0.447-1,1-1s1,0.447,1,1V42.5
				C15,43.053,14.553,43.5,14,43.5z"/>
		</g>
		<path fill="#656D78" d="M59,13.5h3c0.55,0,1,0.45,1,1v10c0,0.55-0.45,1-1,1h-3v-4v-4V13.5z"/>
		<g>
			<path fill="#434A54" d="M60,18.5h-1c-0.553,0-1-0.447-1-1s0.447-1,1-1h1c0.553,0,1,0.447,1,1S60.553,18.5,60,18.5z"/>
		</g>
		<g>
			<path fill="#434A54" d="M60,22.5h-0.999c-0.553,0-1-0.447-1-1s0.447-1,1-1H60c0.553,0,1,0.447,1,1S60.553,22.5,60,22.5z"/>
		</g>
		<polygon fill="#CCD1D9" points="46,4.5 46,8.5 41,8.5 43,4.5 		"/>
		<polygon fill="#F5F7FA" points="43,4.5 41,8.5 37,8.5 39,4.5 		"/>
		<polygon fill="#CCD1D9" points="39,4.5 37,8.5 34,8.5 34,4.5 		"/>
		<rect x="44" y="13.5" fill="#5D9CEC" width="10" height="5"/>
		<circle fill="#FFFFFF" cx="49" cy="35.5" r="5"/>
		<path fill="#F5F7FA" d="M5,45.5h6v10h24v-10h4h20v10c0,2.21-1.79,4-4,4H9c-4.42,0-8-3.58-8-8v-4c0-1.11,0.89-2,2-2H5z"/>
		<path fill="#4A89DC" d="M8,42.5c1.66,0,3,1.34,3,3H5C5,43.84,6.34,42.5,8,42.5z"/>
		<path fill="#5D9CEC" d="M35,45.5v10H11v-10c0-1.66-1.34-3-3-3h6h18C33.66,42.5,35,43.84,35,45.5z"/>
		<path fill="#FFFFFF" d="M28,14.5c1.1,0,2,0.9,2,2s-0.9,2-2,2s-2-0.9-2-2S26.9,14.5,28,14.5z"/>
		<path fill="#CCD1D9" d="M30,16.5c0-1.1-0.9-2-2-2h6c1.1,0,2,0.9,2,2s-0.9,2-2,2h-6C29.1,18.5,30,17.6,30,16.5z"/>
		<path fill="#E6E9ED" d="M55,8.5h-1h-8h-5h-4h-3H14h-4c-2.21,0-4,1.79-4,4v18c0,2.21,1.79,4,4,4h4h4c2.21,0,4-1.79,4-4v-4
			c0-1.11,0.89-2,2-2h13c1.1,0,2,0.89,2,2v19h20v-20v-4v-4v-4v-1C59,10.29,57.21,8.5,55,8.5z M34,18.5h-6c-1.1,0-2-0.9-2-2
			s0.9-2,2-2h6c1.1,0,2,0.9,2,2S35.1,18.5,34,18.5z M49,40.5c-2.76,0-5-2.24-5-5s2.24-5,5-5s5,2.24,5,5S51.76,40.5,49,40.5z
			 M54,18.5H44v-5h10V18.5z"/>
		<g>
			<path fill="#F5F7FA" d="M17,48.5c-0.553,0-1-0.447-1-1v-2c0-0.553,0.447-1,1-1s1,0.447,1,1v2C18,48.053,17.553,48.5,17,48.5z"/>
		</g>
		<g>
			<path fill="#F5F7FA" d="M17,53.5c-0.553,0-1-0.447-1-1v-2c0-0.553,0.447-1,1-1s1,0.447,1,1v2C18,53.053,17.553,53.5,17,53.5z"/>
		</g>
		<g>
			<path fill="#CCD1D9" d="M49.03,28.5c-0.553,0-1.005-0.447-1.005-1s0.442-1,0.994-1h0.011c0.552,0,1,0.447,1,1
				S49.582,28.5,49.03,28.5z"/>
		</g>
		<g>
			<path fill="#E6E9ED" d="M49.03,34.5c-0.553,0-1.005-0.447-1.005-1s0.442-1,0.994-1h0.011c0.552,0,1,0.447,1,1
				S49.582,34.5,49.03,34.5z"/>
		</g>
		<g>
			<path fill="#CCD1D9" d="M45.03,29.572c-0.553,0-1.005-0.447-1.005-1s0.442-1,0.994-1h0.011c0.552,0,1,0.447,1,1
				S45.582,29.572,45.03,29.572z"/>
		</g>
		<g>
			<path fill="#CCD1D9" d="M42.102,32.5c-0.553,0-1.005-0.447-1.005-1s0.442-1,0.994-1h0.011c0.552,0,1,0.447,1,1
				S42.653,32.5,42.102,32.5z"/>
		</g>
		<g>
			<path fill="#CCD1D9" d="M55.957,32.5c-0.553,0-1.005-0.447-1.005-1s0.442-1,0.994-1h0.011c0.552,0,1,0.447,1,1
				S56.509,32.5,55.957,32.5z"/>
		</g>
		<g>
			<path fill="#CCD1D9" d="M53.028,29.572c-0.553,0-1.005-0.447-1.005-1s0.442-1,0.994-1h0.011c0.552,0,1,0.447,1,1
				S53.58,29.572,53.028,29.572z"/>
		</g>
		<path fill="#CCD1D9" d="M14,32.5c0.553,0,1-0.447,1-1v-23h-1h-1v23C13,32.053,13.447,32.5,14,32.5z"/>
	</g>
</g>
<g id="_x32_3_measuring_x2C__tape_x2C__handmade_x2C__craft_x2C__artisan_x2C__workshop_x2C__hobby">
</g>
<g id="_x32_2_yarn_x2C__basket_x2C__needles_x2C__knitting_x2C__handmade_x2C__craft_x2C__artisan">
</g>
<g id="_x32_1_jewelry_x2C__accessory_x2C__handmade_x2C__craft_x2C__artisan_x2C__workshop_x2C__hobby">
</g>
<g id="_x32_0_purchase_x2C__shopping_x2C__bag_x2C__handmade_x2C__craft_x2C__artisan_x2C__workshop">
</g>
<g id="_x31_9_button_x2C__clothes_x2C__handmade_x2C__craft_x2C__artisan_x2C__workshop_x2C__hobby">
</g>
<g id="_x31_8_pottery_x2C__pot_x2C__potter_x2C__wheel_x2C__handmade_x2C__craft_x2C__artisan">
</g>
<g id="_x31_7_apron_x2C__tool_x2C__handmade_x2C__craft_x2C__artisan_x2C__workshop_x2C__hobby">
</g>
<g id="_x31_6_kanchelar_x2C__knife_x2C__handmade_x2C__craft_x2C__artisan_x2C__workshop_x2C__hobby">
</g>
<g id="_x31_5_cross_x2C__stitch_x2C__needle_x2C__thread_x2C__handmade_x2C__craft_x2C__artisan">
</g>
<g id="_x31_4_knitting_x2C__yarn_x2C__needle_x2C__handmade_x2C__craft_x2C__artisan_x2C__workshop">
</g>
<g id="_x31_3_finger_x2C__thimble_x2C__needle_x2C__handmade_x2C__craft_x2C__artisan_x2C__workshop">
</g>
<g id="_x31_2_ink_x2C__calligraphy_x2C__handmade_x2C__craft_x2C__artisan_x2C__workshop_x2C__hobby">
</g>
<g id="_x31_1_crayon_x2C__painting_x2C__drawing_x2C__handmade_x2C__craft_x2C__artisan_x2C__workshop">
</g>
<g id="_x31_0_tool_x2C__peneraser_x2C__pencil_x2C__ruler_x2C__handmade_x2C__craft_x2C__artisan">
</g>
<g id="_x39__felt-tip_x2C__pen_x2C__calligraphy_x2C__handmade_x2C__craft_x2C__artisan_x2C__workshop">
</g>
<g id="_x38__calligraphy_x2C__pen_x2C__handmade_x2C__craft_x2C__artisan_x2C__workshop_x2C__hobby">
</g>
<g id="_x37__design_x2C__notebook_x2C__pencil_x2C__handmade_x2C__craft_x2C__artisan_x2C__workshop">
</g>
<g id="_x36__pencil_x2C__handmade_x2C__craft_x2C__artisan_x2C__workshop_x2C__hobby">
</g>
<g id="_x35__glue_x2C__handmade_x2C__craft_x2C__artisan_x2C__workshop_x2C__hobby">
</g>
<g id="_x34__brush_x2C__painting_x2C__drawing_x2C__handmade_x2C__craft_x2C__artisan_x2C__workshop">
</g>
<g id="_x33__yarn_x2C__heart_x2C__needles_x2C__knitting_x2C__handmade_x2C__craft_x2C__artisan">
</g>
<g id="_x32__yarn_x2C__ball_x2C__needles_x2C__knitting_x2C__handmade_x2C__craft_x2C__artisan">
</g>
<g id="_x31__thread_x2C__needle_x2C__handmade_x2C__craft_x2C__artisan_x2C__workshop_x2C__hobby">
</g>
</svg>
