<?xml version="1.0" encoding="UTF-8"?>
<!DOCTYPE svg PUBLIC "-//W3C//DTD SVG 1.1//EN" "http://www.w3.org/Graphics/SVG/1.1/DTD/svg11.dtd">
<!-- Creator: CorelDRAW -->
<svg xmlns="http://www.w3.org/2000/svg" xml:space="preserve" width="2048px" height="2048px" style="shape-rendering:geometricPrecision; text-rendering:geometricPrecision; image-rendering:optimizeQuality; fill-rule:evenodd; clip-rule:evenodd"
viewBox="0 0 2048 2048"
 xmlns:xlink="http://www.w3.org/1999/xlink">
 <defs>
  <style type="text/css">
   <![CDATA[
    .fil2 {fill:none}
    .fil20 {fill:#006064}
    .fil21 {fill:#0097A7}
    .fil16 {fill:#00BCD4}
    .fil14 {fill:#00C853}
    .fil11 {fill:#263238}
    .fil1 {fill:#7B1FA2}
    .fil0 {fill:#AB47BC}
    .fil22 {fill:#DD2C00}
    .fil15 {fill:#EEFF41}
    .fil19 {fill:#F38A08}
    .fil17 {fill:#FF5722}
    .fil18 {fill:#FF9800}
    .fil12 {fill:#FFA726}
    .fil8 {fill:#BF360C;fill-rule:nonzero}
    .fil10 {fill:#F24615;fill-rule:nonzero}
    .fil9 {fill:#F44917;fill-rule:nonzero}
    .fil6 {fill:#F6AF69;fill-rule:nonzero}
    .fil13 {fill:#FF3D00;fill-rule:nonzero}
    .fil7 {fill:#FF5722;fill-rule:nonzero}
    .fil4 {fill:#FFA726;fill-rule:nonzero}
    .fil5 {fill:#FFCC80;fill-rule:nonzero}
    .fil3 {fill:#FFFFFE;fill-rule:nonzero}
   ]]>
  </style>
   <clipPath id="id0">
    <path d="M1024 -0.0011811c565.539,0 1024,458.462 1024,1024 0,565.539 -458.462,1024 -1024,1024 -565.539,0 -1024,-458.462 -1024,-1024 0,-565.539 458.462,-1024 1024,-1024z"/>
   </clipPath>
 </defs>
 <g id="Layer_x0020_1">
  <metadata id="CorelCorpID_0Corel-Layer"/>
  <path class="fil0" d="M1024 -0.0011811c565.539,0 1024,458.462 1024,1024 0,565.539 -458.462,1024 -1024,1024 -565.539,0 -1024,-458.462 -1024,-1024 0,-565.539 458.462,-1024 1024,-1024z"/>
  <g style="clip-path:url(#id0)">
   <g id="_451250048">
    <g>
     <polygon id="_2863404881" class="fil1" points="1473.43,744.329 2609.31,1880.21 2610.37,1881.46 2611.4,1882.74 2612.39,1884.04 2613.36,1885.36 2614.3,1886.71 2615.2,1888.08 2616.07,1889.47 2616.91,1890.89 2617.72,1892.33 2618.49,1893.78 2619.23,1895.26 2619.93,1896.76 2620.59,1898.28 2621.22,1899.82 2621.82,1901.37 2622.37,1902.95 2622.89,1904.53 2623.37,1906.14 2623.81,1907.77 2624.21,1909.4 2624.58,1911.06 2624.9,1912.72 2625.18,1914.41 2625.42,1916.1 2625.61,1917.81 2625.77,1919.53 2625.88,1921.26 2625.94,1923 2625.97,1924.76 1490.08,788.875 1490.06,787.121 1490,785.378 1489.89,783.647 1489.73,781.927 1489.54,780.219 1489.3,778.524 1489.02,776.842 1488.7,775.175 1488.33,773.521 1487.93,771.883 1487.49,770.26 1487.01,768.653 1486.49,767.063 1485.94,765.49 1485.34,763.935 1484.71,762.397 1484.05,760.88 1483.35,759.381 1482.61,757.902 1481.84,756.443 1481.03,755.006 1480.19,753.59 1479.32,752.196 1478.42,750.825 1477.48,749.477 1476.51,748.153 1475.52,746.854 1474.49,745.579 "/>
     <polygon id="_286339792" class="fil1" points="1313.93,623.092 2449.81,1758.97 2450.87,1760.27 2451.68,1761.75 2452.19,1763.39 2452.36,1765.15 1316.48,629.267 1316.31,627.507 1315.8,625.868 1314.99,624.384 "/>
     <polygon id="_286340728" class="fil1" points="1578.68,736.607 2714.56,1872.49 2715.9,1874.28 2717.07,1876.2 2718.05,1878.24 2718.83,1880.38 2719.41,1882.61 2719.76,1884.92 2719.88,1887.3 1584,751.42 1583.88,749.039 1583.53,746.727 1582.95,744.494 1582.17,742.355 1581.19,740.319 1580.02,738.399 "/>
     <polygon id="_286340680" class="fil1" points="1316.48,629.267 2452.36,1765.15 2452.36,1856.62 1316.48,720.74 "/>
     <polygon id="_286341088" class="fil1" points="1490.08,901.132 2625.97,2037.01 2625.97,2331.25 1490.08,1195.37 "/>
     <polygon id="_286340824" class="fil1" points="1560.71,1007.6 2696.59,2143.48 2694.21,2143.36 2691.9,2143.01 2689.67,2142.43 2687.53,2141.65 2685.49,2140.67 2683.57,2139.5 2681.78,2138.16 2680.12,2136.66 2678.62,2135.01 1542.74,999.124 1544.24,1000.78 1545.9,1002.28 1547.69,1003.62 1549.61,1004.79 1551.65,1005.77 1553.79,1006.55 1556.02,1007.13 1558.33,1007.48 "/>
     <polygon id="_286340896" class="fil1" points="1490.08,788.875 2625.97,1924.76 2625.97,1970.48 1490.08,834.598 "/>
     <polygon id="_286341880" class="fil1" points="1537.42,901.132 2673.3,2037.01 2625.97,2037.01 1490.08,901.132 "/>
     <polygon id="_286341808" class="fil1" points="1490.08,1195.37 2625.97,2331.25 2625.97,2333.41 1490.08,1197.53 "/>
     <polygon id="_286341952" class="fil1" points="1490.08,1197.53 2625.97,2333.41 2645.8,2365.92 1509.91,1230.04 "/>
     <polygon id="_286341400" class="fil1" points="1509.96,1230.01 2645.84,2365.89 2646.51,2367.05 2647.1,2368.23 2647.61,2369.42 2648.06,2370.64 2648.43,2371.86 2648.73,2373.1 2648.97,2374.35 2649.13,2375.6 1513.25,1239.72 1513.08,1238.47 1512.85,1237.22 1512.55,1235.98 1512.18,1234.75 1511.73,1233.54 1511.21,1232.34 1510.63,1231.16 "/>
     <polygon id="_286341976" class="fil1" points="1513.25,1239.72 2649.13,2375.6 2649.16,2375.93 2649.19,2376.26 2649.21,2376.59 2649.23,2376.92 2649.24,2377.25 2649.25,2377.58 2649.25,2377.91 2649.25,2378.24 1513.37,1242.35 1513.37,1242.02 1513.37,1241.69 1513.36,1241.36 1513.35,1241.03 1513.33,1240.71 1513.31,1240.37 1513.28,1240.05 "/>
     <polygon id="_286342024" class="fil1" points="1513.37,1242.35 2649.25,2378.24 2649.25,2378.72 1513.37,1242.84 "/>
     <polygon id="_286341664" class="fil1" points="1513.37,1242.84 2649.25,2378.72 2649.25,2495.21 1513.37,1359.33 "/>
     <polygon id="_286341712" class="fil1" points="693.102,690.577 1828.98,1826.46 1828.33,1825.82 1827.61,1825.29 1826.83,1824.88 690.947,689 691.727,689.41 692.451,689.936 "/>
     <polygon id="_286341352" class="fil1" points="690.947,689 1826.83,1824.88 1826.51,1824.75 1826.18,1824.64 1825.85,1824.55 1825.51,1824.47 1825.16,1824.41 1824.81,1824.36 1824.46,1824.34 1824.11,1824.33 688.224,688.446 688.578,688.454 688.932,688.482 689.281,688.525 689.626,688.586 689.966,688.664 690.301,688.759 690.628,688.871 "/>
     <polygon id="_286342360" class="fil1" points="688.224,688.446 1824.11,1824.33 1823.78,1824.34 1823.46,1824.36 1823.14,1824.4 1822.82,1824.45 1822.5,1824.52 1822.19,1824.61 1821.89,1824.71 1821.59,1824.82 685.707,688.941 686.006,688.825 686.312,688.725 686.621,688.64 686.937,688.57 687.254,688.516 687.576,688.477 687.899,688.454 "/>
     <polygon id="_286342168" class="fil1" points="467.639,1292.61 1603.52,2428.49 1602.79,2428.42 1602.1,2428.21 1601.49,2427.87 1600.95,2427.43 465.065,1291.54 465.604,1291.99 466.222,1292.32 466.905,1292.53 "/>
     <polygon id="_286342432" class="fil1" points="535.774,1427.46 1671.66,2563.35 1669.9,2563.32 1668.16,2563.26 1666.43,2563.15 1664.71,2562.99 1663,2562.8 1661.3,2562.56 1659.62,2562.28 1657.95,2561.96 1656.3,2561.6 1654.66,2561.19 1653.04,2560.75 1651.43,2560.27 1649.84,2559.76 1648.27,2559.2 1646.71,2558.61 1645.18,2557.98 1643.66,2557.31 1642.16,2556.61 1640.68,2555.87 1639.22,2555.1 1637.79,2554.29 1636.37,2553.46 1634.98,2552.58 1633.61,2551.68 1632.26,2550.74 1630.93,2549.78 1629.63,2548.78 1628.36,2547.75 492.478,1411.87 493.752,1412.9 495.052,1413.9 496.376,1414.86 497.724,1415.8 499.095,1416.7 500.489,1417.57 501.904,1418.41 503.341,1419.22 504.8,1419.99 506.279,1420.73 507.778,1421.43 509.295,1422.09 510.833,1422.72 512.389,1423.32 513.961,1423.87 515.552,1424.39 517.158,1424.87 518.781,1425.31 520.419,1425.71 522.072,1426.08 523.74,1426.4 525.422,1426.68 527.117,1426.92 528.825,1427.11 530.546,1427.27 532.277,1427.38 534.02,1427.44 "/>
     <polygon id="_286342696" class="fil1" points="676.659,1111.74 1812.54,2247.63 1812.54,2276.51 676.659,1140.63 "/>
     <polygon id="_286342480" class="fil1" points="801.237,956.511 1937.12,2092.39 1937.12,2224.34 801.237,1088.45 "/>
     <polygon id="_286342192" class="fil1" points="685.707,688.941 1821.59,1824.82 1821.44,1824.89 685.561,689.012 "/>
     <polygon id="_286342720" class="fil1" points="801.237,1088.45 1937.12,2224.34 1937,2226.72 1936.64,2229.03 1936.07,2231.26 1935.29,2233.4 1934.31,2235.44 1933.14,2237.36 1931.8,2239.15 1930.3,2240.8 1928.64,2242.31 1926.85,2243.65 1924.93,2244.81 1922.89,2245.79 1920.75,2246.58 1918.52,2247.15 1916.21,2247.5 1913.83,2247.63 777.947,1111.74 780.328,1111.62 782.64,1111.27 784.873,1110.7 787.012,1109.91 789.048,1108.93 790.968,1107.77 792.761,1106.42 794.415,1104.92 795.918,1103.27 797.259,1101.47 798.426,1099.55 799.406,1097.52 800.189,1095.38 800.763,1093.15 801.116,1090.83 "/>
     <polygon id="_286342768" class="fil1" points="553.745,900.487 1689.63,2036.37 1687.41,2036.21 1685.2,2036.11 1682.99,2036.09 1680.78,2036.14 1678.57,2036.26 1676.35,2036.45 1674.14,2036.7 1671.93,2037.03 1669.72,2037.42 1667.5,2037.89 1665.29,2038.42 1663.08,2039.02 1660.87,2039.68 1658.66,2040.41 1656.44,2041.22 1654.23,2042.08 518.35,906.2 520.562,905.333 522.774,904.533 524.986,903.799 527.198,903.133 529.411,902.535 531.623,902.004 533.835,901.541 536.047,901.146 538.259,900.822 540.472,900.564 542.684,900.377 544.896,900.259 547.108,900.211 549.321,900.232 551.533,900.324 "/>
     <polygon id="_286342216" class="fil1" points="784.001,1237.43 1919.88,2373.31 1920.33,2373.85 1920.66,2374.47 1920.87,2375.15 1920.95,2375.89 785.066,1240 784.992,1239.27 784.781,1238.59 784.445,1237.97 "/>
     <polygon id="_286342840" class="fil1" points="630.08,1111.74 1765.96,2247.63 1712.92,2247.63 577.034,1111.74 "/>
     <polygon id="_286342912" class="fil1" points="644.636,1162.23 1780.52,2298.11 1778.95,2297.41 1777.44,2296.59 1776,2295.67 1774.64,2294.65 1773.36,2293.54 637.478,1157.66 638.761,1158.77 640.123,1159.79 641.56,1160.71 643.066,1161.52 "/>
     <polygon id="_286342864" class="fil1" points="577.034,1111.74 1712.92,2247.63 1710.53,2247.5 1708.22,2247.15 1705.99,2246.58 1703.85,2245.79 1701.81,2244.81 1699.89,2243.65 1698.1,2242.31 562.221,1106.42 564.012,1107.77 565.933,1108.93 567.969,1109.91 570.108,1110.7 572.34,1111.27 574.653,1111.62 "/>
     <polygon id="_286343128" class="fil1" points="653.37,1206.92 1789.25,2342.81 1787.49,2342.63 1785.85,2342.12 1784.37,2341.32 1783.07,2340.25 647.194,1204.37 648.486,1205.43 649.971,1206.24 651.61,1206.75 "/>
     <polygon id="_286343344" class="fil1" points="662.103,1162.23 1797.98,2298.11 1797.98,2334.07 662.103,1198.19 "/>
     <polygon id="_286342984" class="fil1" points="676.659,1140.63 1812.54,2276.51 1812.47,2278.33 1812.26,2280.11 1811.93,2281.84 1811.47,2283.53 1810.88,2285.16 1810.18,2286.73 1809.38,2288.24 1808.46,2289.68 1807.45,2291.05 1806.34,2292.34 1805.14,2293.54 1803.86,2294.65 1802.5,2295.67 1801.06,2296.59 1799.55,2297.41 1797.98,2298.11 662.103,1162.23 663.673,1161.52 665.178,1160.71 666.616,1159.79 667.978,1158.77 669.26,1157.66 670.459,1156.45 671.567,1155.17 672.582,1153.8 673.495,1152.36 674.304,1150.85 675.002,1149.28 675.585,1147.64 676.047,1145.96 676.384,1144.22 676.589,1142.45 "/>
     <polygon id="_286343584" class="fil1" points="662.103,1198.19 1797.98,2334.07 1797.81,2335.83 1797.3,2337.47 1796.49,2338.96 1795.43,2340.25 1794.13,2341.32 1792.65,2342.12 1791.01,2342.63 1789.25,2342.81 653.37,1206.92 655.13,1206.75 656.769,1206.24 658.252,1205.43 659.545,1204.37 660.611,1203.07 661.417,1201.59 661.926,1199.95 "/>
     <polygon id="_286343464" class="fil1" points="518.35,906.2 1654.23,2042.08 1652.77,2042.01 1651.35,2041.79 1649.98,2041.44 1648.66,2040.96 1647.41,2040.35 1646.23,2039.64 1645.13,2038.81 1644.11,2037.89 508.23,902.009 509.247,902.932 510.349,903.755 511.529,904.472 512.78,905.076 514.094,905.557 515.465,905.91 516.886,906.126 "/>
     <polygon id="_286343488" class="fil1" points="777.947,1111.74 1913.83,2247.63 1812.54,2247.63 676.659,1111.74 "/>
     <polygon id="_286343224" class="fil1" points="685.561,689.012 1821.44,1824.89 1820.65,1825.34 1819.91,1825.92 1819.25,1826.64 1818.67,1827.52 1818.2,1828.53 1817.84,1829.7 1817.62,1831.02 1817.54,1832.49 681.657,696.611 681.735,695.137 681.96,693.818 682.315,692.65 682.788,691.633 683.364,690.762 684.027,690.037 684.765,689.455 "/>
     <polygon id="_286343824" class="fil1" points="681.657,696.611 1817.54,1832.49 1817.54,1840.77 681.657,704.886 "/>
     <polygon id="_286343872" class="fil1" points="681.657,704.886 1817.54,1840.77 1817.46,1841.53 1817.24,1842.24 1816.89,1842.88 1816.43,1843.44 1815.87,1843.91 1815.23,1844.26 1814.52,1844.48 1813.75,1844.55 677.872,708.671 678.635,708.595 679.345,708.374 679.987,708.024 680.548,707.562 681.01,707.001 681.36,706.359 681.58,705.649 "/>
     <polygon id="_286344016" class="fil1" points="677.872,708.671 1813.75,1844.55 1812.99,1844.48 1812.28,1844.26 1811.64,1843.91 1811.08,1843.44 675.197,707.562 675.756,708.024 676.399,708.374 677.109,708.595 "/>
     <polygon id="_286343944" class="fil1" points="697.992,684.728 1833.87,1820.61 1834.56,1821.31 1835.21,1822.07 1835.8,1822.88 1836.34,1823.75 1836.81,1824.68 1837.23,1825.65 1837.58,1826.69 1837.86,1827.77 1838.06,1828.91 1838.18,1830.1 1838.23,1831.34 702.345,695.461 702.303,694.218 702.178,693.028 701.975,691.889 701.697,690.804 701.349,689.771 700.933,688.793 700.456,687.87 699.918,687.002 699.325,686.188 698.682,685.43 "/>
     <polygon id="_286344184" class="fil1" points="702.345,695.461 1838.23,1831.34 1838.23,1856.62 702.345,720.74 "/>
     <polygon id="_286343848" class="fil1" points="1093.3,956.511 2229.19,2092.39 1937.12,2092.39 801.237,956.511 "/>
     <polygon id="_286343896" class="fil1" points="1513.37,1359.33 2649.25,2495.21 2649.23,2496.77 2649.18,2498.31 2649.1,2499.85 2648.97,2501.38 2648.82,2502.9 2648.63,2504.41 2648.41,2505.91 2648.16,2507.4 2647.87,2508.87 2647.55,2510.34 2647.2,2511.8 2646.82,2513.24 2646.41,2514.67 2645.97,2516.09 2645.5,2517.49 2645,2518.88 1509.12,1383 1509.62,1381.61 1510.09,1380.2 1510.53,1378.79 1510.94,1377.36 1511.32,1375.91 1511.67,1374.46 1511.99,1372.99 1512.28,1371.51 1512.53,1370.03 1512.75,1368.53 1512.94,1367.02 1513.09,1365.5 1513.21,1363.97 1513.3,1362.43 1513.35,1360.88 "/>
     <polygon id="_286344064" class="fil1" points="1445.24,1427.46 2581.12,2563.35 1671.66,2563.35 535.774,1427.46 "/>
     <polygon id="_286344136" class="fil1" points="1509.12,1383 2645,2518.88 2644.33,2520.61 2643.61,2522.31 2642.85,2523.99 2642.05,2525.65 2641.2,2527.28 2640.31,2528.89 2639.38,2530.46 2638.41,2532.02 2637.4,2533.54 2636.35,2535.03 2635.26,2536.5 2634.13,2537.93 2632.96,2539.34 2631.76,2540.71 2630.53,2542.04 2629.26,2543.35 1493.37,1407.47 1494.64,1406.16 1495.88,1404.82 1497.08,1403.45 1498.25,1402.05 1499.37,1400.62 1500.46,1399.15 1501.52,1397.66 1502.53,1396.13 1503.5,1394.58 1504.43,1393 1505.32,1391.4 1506.17,1389.77 1506.97,1388.11 1507.73,1386.43 1508.45,1384.72 "/>
     <polygon id="_286344952" class="fil1" points="1493.37,1407.47 2629.26,2543.35 2628.08,2544.49 2626.89,2545.61 2625.66,2546.69 2624.41,2547.75 2623.14,2548.78 2621.84,2549.78 2620.52,2550.74 2619.17,2551.68 2617.8,2552.58 2616.4,2553.46 2614.99,2554.29 2613.55,2555.1 2612.09,2555.87 2610.61,2556.61 2609.11,2557.31 2607.59,2557.98 2606.06,2558.61 2604.5,2559.2 2602.93,2559.75 2601.34,2560.27 2599.73,2560.75 2598.11,2561.19 2596.47,2561.6 2594.82,2561.96 2593.15,2562.28 2591.47,2562.56 2589.77,2562.8 2588.07,2562.99 2586.35,2563.15 2584.61,2563.26 2582.87,2563.32 2581.12,2563.35 1445.24,1427.46 1446.99,1427.44 1448.73,1427.38 1450.46,1427.27 1452.18,1427.11 1453.89,1426.92 1455.59,1426.68 1457.27,1426.4 1458.94,1426.08 1460.59,1425.71 1462.23,1425.31 1463.85,1424.87 1465.46,1424.39 1467.05,1423.87 1468.62,1423.32 1470.18,1422.72 1471.71,1422.09 1473.23,1421.43 1474.73,1420.73 1476.21,1419.99 1477.67,1419.22 1479.11,1418.41 1480.52,1417.57 1481.91,1416.7 1483.29,1415.8 1484.63,1414.86 1485.96,1413.89 1487.26,1412.9 1488.53,1411.87 1489.78,1410.81 1491.01,1409.73 1492.2,1408.61 "/>
     <polygon id="_286344520" class="fil1" points="1584,751.42 2719.88,1887.3 2719.88,2120.19 1584,984.31 "/>
     <polygon id="_286345000" class="fil1" points="1584,984.31 2719.88,2120.19 2719.76,2122.57 2719.41,2124.89 2718.83,2127.12 2718.05,2129.26 2717.07,2131.29 2715.9,2133.21 2714.56,2135.01 2713.06,2136.66 2711.41,2138.16 2709.61,2139.5 2707.69,2140.67 2705.66,2141.65 2703.52,2142.43 2701.29,2143.01 2698.97,2143.36 2696.59,2143.48 1560.71,1007.6 1563.09,1007.48 1565.4,1007.13 1567.64,1006.55 1569.78,1005.77 1571.81,1004.79 1573.73,1003.62 1575.52,1002.28 1577.18,1000.78 1578.68,999.124 1580.02,997.331 1581.19,995.41 1582.17,993.375 1582.95,991.235 1583.53,989.004 1583.88,986.691 "/>
    </g>
    <path id="_451250816" class="fil1" d="M1470.09 740.737c12.3378,12.3378 19.9973,29.3776 19.9973,48.1382l0 45.7229 47.3363 0 0 -83.178c0,-12.8622 10.428,-23.289 23.2902,-23.289 12.861,0 23.289,10.4268 23.289,23.289l0 232.89c0,12.861 -10.428,23.289 -23.289,23.289 -12.8622,0 -23.2902,-10.428 -23.2902,-23.289l0 -83.178 -47.3363 0 0 294.234 0 2.15906 19.8295 32.5099 0.0496063 -0.0283465c1.86378,3.05551 2.93977,6.37087 3.28465,9.70867 0.090945,0.878741 0.132284,1.75984 0.122835,2.6374l0 0.485433 0 116.491c0,8.31379 -1.50473,16.2898 -4.25315,23.6681 -3.45473,9.27166 -8.87363,17.6008 -15.7441,24.4701 -12.3366,12.3378 -29.3776,19.9973 -48.1382,19.9973l-909.461 0c-18.7618,0 -35.8016,-7.65827 -48.1382,-19.9973 -6.87048,-6.8693 -12.2894,-15.1984 -15.7441,-24.4701 -2.74843,-7.37835 -4.25315,-15.3543 -4.25315,-23.6681l0 -66.7205c-2.01024,0 -3.64016,-1.62874 -3.64016,-3.63898 0,-2.01024 1.62992,-3.63898 3.64016,-3.63898l0 -22.0382c0,-12.861 10.4268,-23.289 23.289,-23.289l223.336 0 63.5245 0c0,-2.01024 1.62874,-3.63898 3.63898,-3.63898 2.01024,0 3.63898,1.62874 3.63898,3.63898l71.1875 0 237.051 0 0 -0.288189 0 -38.0941 0 -6.25512 0 -238.856 -292.068 0 0 131.942c0,12.8622 -10.428,23.2902 -23.2902,23.2902l-101.288 0 0 28.8886c0,9.77363 -6.02126,18.1417 -14.5559,21.5977l0 35.9622c0,4.82244 -3.91063,8.73308 -8.73308,8.73308 -4.82363,0 -8.73426,-3.91063 -8.73426,-8.73308l0 -35.9634c-8.53465,-3.45473 -14.5559,-11.8228 -14.5559,-21.5965l0 -28.8886 -53.0457 0c-12.8622,0 -23.289,-10.428 -23.289,-23.2902l0 -187.965c-11.798,-1.05709 -23.5973,0.911812 -35.3953,5.713 -7.90276,0 -14.3114,-6.40867 -14.3114,-14.3114 0,-7.90276 6.40867,-14.3114 14.3114,-14.3114 12.3969,-1.90276 24.1418,-1.84606 35.3953,-0.316536l0 -88.3855c0,-18.7606 7.65827,-35.8016 19.9961,-48.1394 12.3378,-12.3366 29.3776,-19.9961 48.1394,-19.9961l68.406 0 4.48937 0 0 -25.2792c0,-3.33071 -1.68189,-5.5252 -3.82914,-6.46063 -0.839764,-0.366142 -1.77402,-0.553937 -2.72244,-0.553937 -0.868111,0 -1.72677,0.166536 -2.51693,0.494882l-0.146457 0.0708662c-2.18977,0.99567 -3.90355,3.45945 -3.90355,7.59922l0 8.27481c0,2.08937 -1.69606,3.78544 -3.78544,3.78544 -2.08937,0 -3.78425,-1.69606 -3.78425,-3.78544l0 -8.27481c0,-7.60276 3.65906,-12.3626 8.33741,-14.491l0.222047 -0.0921261c1.77638,-0.770079 3.68268,-1.15158 5.57717,-1.15158 1.94528,0 3.90945,0.4063 5.73898,1.20236 4.70315,2.0504 8.38229,6.61536 8.38229,13.3819l0 25.2792 5.40827 0 591.263 0 0 -91.4729c0,-4.82244 3.91063,-8.73308 8.73426,-8.73308 4.82244,0 8.73308,3.91063 8.73308,8.73308l0 91.4729 105.464 0c18.7618,0 35.8016,7.65827 48.1394,19.9973z"/>
   </g>
  </g>
  <path class="fil2" d="M1024 -0.0011811c565.539,0 1024,458.462 1024,1024 0,565.539 -458.462,1024 -1024,1024 -565.539,0 -1024,-458.462 -1024,-1024 0,-565.539 458.462,-1024 1024,-1024z"/>
  <path class="fil3" d="M674.086 704.886c0,2.08937 1.69606,3.78544 3.78544,3.78544 2.08937,0 3.78544,-1.69606 3.78544,-3.78544l0 -8.27481c0,-4.13859 1.71378,-6.60355 3.90355,-7.59922l0.147638 -0.0708662c0.787796,-0.329528 1.64764,-0.494882 2.51575,-0.494882 0.948426,0 1.88386,0.187795 2.72244,0.553937 2.14725,0.935434 3.82796,3.12874 3.82796,6.45945l0 25.9795c0,2.08937 1.69606,3.78544 3.78544,3.78544 2.08937,0 3.78544,-1.69606 3.78544,-3.78544l0 -25.9795c0,-6.76536 -3.67914,-11.3303 -8.38229,-13.3807 -1.82835,-0.796064 -3.7937,-1.20236 -5.73898,-1.20236 -1.89449,0 -3.80079,0.381496 -5.57717,1.15158l-0.222047 0.0921261c-4.67835,2.12835 -8.33859,6.88819 -8.33859,14.491l0 8.27481z"/>
  <path class="fil3" d="M1316.48 629.267c0,-4.82244 -3.91063,-8.73308 -8.73308,-8.73308 -4.82363,0 -8.73426,3.91063 -8.73426,8.73308l0 94.4587c0,4.82363 3.91063,8.73426 8.73426,8.73426 4.82244,0 8.73308,-3.91063 8.73308,-8.73426l0 -94.4587z"/>
  <path class="fil3" d="M662.103 1103.73c0,-4.82363 -3.91063,-8.73426 -8.73308,-8.73426 -4.82363,0 -8.73426,3.91063 -8.73426,8.73426l0 94.4587c0,4.82244 3.91063,8.73308 8.73426,8.73308 4.82244,0 8.73308,-3.91063 8.73308,-8.73308l0 -94.4587z"/>
  <path class="fil3" d="M518.35 877.577c-7.90276,0 -14.3114,6.40867 -14.3114,14.3114 0,7.90276 6.40867,14.3114 14.3114,14.3114 16.8591,-6.86103 33.7181,-7.93701 50.5772,-2.66693 6.43111,0 11.6457,-5.21339 11.6457,-11.6445 0,-6.42993 -5.21457,-11.6445 -11.6457,-11.6445 -15.8055,-4.04882 -32.4969,-5.44252 -50.5772,-2.66693zm-2.88425 9.41221c2.82638,0 5.11772,2.29016 5.11772,5.11654 0,2.82638 -2.29134,5.11772 -5.11772,5.11772 -2.82638,0 -5.11654,-2.29134 -5.11654,-5.11772 0,-2.82638 2.29016,-5.11654 5.11654,-5.11654z"/>
  <path class="fil4" d="M676.659 1095.84c0,-12.861 -10.428,-23.289 -23.289,-23.289 -12.8622,0 -23.2902,10.428 -23.2902,23.289l0 44.7898c0,12.8622 10.428,23.2902 23.2902,23.2902 12.861,0 23.289,-10.428 23.289,-23.2902l0 -44.7898z"/>
  <path class="fil4" d="M1467.55 834.598c-12.861,0 -23.289,14.8949 -23.289,33.267 0,18.3721 10.428,33.267 23.289,33.267l84.5198 0c12.8622,0 23.289,-14.8949 23.289,-33.267 0,-18.3721 -10.4268,-33.267 -23.289,-33.267l-84.5198 0z"/>
  <path class="fil5" d="M621.88 720.74l800.068 0c18.7618,0 35.8016,7.65827 48.1394,19.9973 12.3378,12.3378 19.9973,29.3776 19.9973,48.1382l0 408.65 19.8295 32.5099 -19.8319 12.0992 19.8815 -12.1276c2.35512,3.85985 3.45118,8.13544 3.40748,12.3461l0 116.976c0,18.7606 -7.65945,35.8004 -19.9973,48.1382 -12.3366,12.3378 -29.3776,19.9973 -48.1382,19.9973l-909.461 0c-18.7618,0 -35.8016,-7.65827 -48.1382,-19.9973 -12.3378,-12.3378 -19.9973,-29.3776 -19.9973,-48.1382l0 -96.0367c0,-12.861 10.4268,-23.289 23.289,-23.289l223.336 0 141.99 0 237.051 0 0 -283.493 -292.068 0 0 131.942c0,12.8622 -10.428,23.2902 -23.2902,23.2902l-200.913 0c-12.8622,0 -23.289,-10.428 -23.289,-23.2902l0 -299.577c0,-18.7606 7.65827,-35.8016 19.9961,-48.1394 12.3378,-12.3366 29.3776,-19.9961 48.1394,-19.9961z"/>
  <path class="fil6" d="M1490.08 1195.37l0 2.15906 19.8295 32.5099 -19.8319 12.0992 19.8815 -12.1276c2.35512,3.85985 3.45118,8.13544 3.40748,12.3461l0 0.485433 -419.886 0 0 -41.217 -0.180709 0 0 -6.25512 396.78 0z"/>
  <path class="fil7" d="M1494.05 1239.72l-3.96378 2.4189 3.96496 -2.4189 19.2012 0c0.090945,0.879922 0.132284,1.75984 0.122835,2.6374l0 116.976c0,18.7606 -7.65945,35.8004 -19.9973,48.1382 -12.3366,12.3378 -29.3776,19.9973 -48.1382,19.9973l-909.461 0c-18.7618,0 -35.8016,-7.65827 -48.1382,-19.9973 -12.3378,-12.3378 -19.9973,-29.3776 -19.9973,-48.1382l0 -96.0367c0,-12.861 10.4268,-23.289 23.289,-23.289l223.336 0 141.99 0 237.051 0 0 -0.288189 400.741 0z"/>
  <path class="fil5" d="M467.639 1288.97l0 -25.6772c0,-12.861 10.4268,-23.289 23.289,-23.289l223.336 0 67.1634 0 0 48.9662 -313.788 0z"/>
  <path class="fil8" d="M785.066 1240c0,-2.01024 -1.62874,-3.63898 -3.63898,-3.63898 -2.01024,0 -3.63898,1.62874 -3.63898,3.63898l0 45.3272 -310.149 0c-2.01024,0 -3.64016,1.62874 -3.64016,3.63898 0,2.01024 1.62992,3.63898 3.64016,3.63898l313.788 0c2.01024,0 3.63898,-1.62874 3.63898,-3.63898l0 -48.9662z"/>
  <polygon class="fil9" points="1115.18,1239.72 1461.44,1239.72 1461.44,1277.03 1115.18,1277.03 "/>
  <path class="fil10" d="M1509.12 1383c-3.45473,9.27166 -8.87363,17.6008 -15.7441,24.4701 -12.3366,12.3378 -29.3776,19.9973 -48.1382,19.9973l-909.461 0c-18.7618,0 -35.8016,-7.65827 -48.1382,-19.9973 -6.87048,-6.8693 -12.2894,-15.1984 -15.7441,-24.4701l1037.23 0z"/>
  <path class="fil11" d="M1195.36 832.438l195.046 0c5.16378,0 9.88111,2.12362 13.3264,5.54882l0.0259843 0.0259843 0.0236221 -0.0236221c0.343701,0.343701 0.661418,0.703938 0.95315,1.07835 2.85945,3.32717 4.59331,7.62638 4.59331,12.2917l0 78.6024c0,5.16142 -2.12362,9.87993 -5.55,13.3264l-0.0259843 0.0259843 0.0248032 0.0236221c-0.344882,0.343701 -0.705119,0.661418 -1.07953,0.95315 -3.32717,2.85945 -7.62638,4.59331 -12.2917,4.59331l-195.046 0c-5.16142,0 -9.88111,-2.1248 -13.3276,-5.55l-0.0248032 -0.0259843 -0.0236221 0.0248032c-0.346063,-0.346063 -0.664961,-0.708662 -0.957875,-1.08425 -2.85827,-3.32717 -4.58859,-7.62638 -4.58859,-12.287l0 -78.6024c0,-5.16378 2.1248,-9.88111 5.55,-13.3264l0.0259843 -0.0248032 -0.0248032 -0.0248032c0.346063,-0.344882 0.708662,-0.66378 1.08425,-0.956694 3.32717,-2.85827 7.62638,-4.58859 12.287,-4.58859z"/>
  <path class="fil12" d="M707.754 1024.57l0 -303.833 -17.4673 0 0 303.833c0,4.82244 3.91063,8.73308 8.73426,8.73308 4.82244,0 8.73308,-3.91063 8.73308,-8.73308z"/>
  <path class="fil13" d="M1584 751.42c0,-12.8622 -10.428,-23.289 -23.289,-23.289 -12.8622,0 -23.2902,10.4268 -23.2902,23.289l0 232.89c0,12.861 10.428,23.289 23.2902,23.289 12.861,0 23.289,-10.428 23.289,-23.289l0 -232.89z"/>
  <rect class="fil14" transform="matrix(2.43362E-014 0.72778 -0.918884 1.92749E-014 1379.27 869.433)" width="58.3335" height="28.6465"/>
  <rect class="fil15" transform="matrix(2.43362E-014 0.72778 -0.918884 1.92749E-014 1330.46 869.433)" width="58.3335" height="28.6465"/>
  <rect class="fil16" transform="matrix(2.43362E-014 0.72778 -0.918884 1.92749E-014 1281.64 869.433)" width="58.3335" height="28.6465"/>
  <rect class="fil17" transform="matrix(2.43362E-014 0.72778 -0.918884 1.92749E-014 1232.82 869.433)" width="58.3335" height="28.6465"/>
  <rect class="fil11" transform="matrix(2.08881E-014 -0.573189 0.259055 4.98627E-015 1231.17 1151.52)" width="245.835" height="61.4587"/>
  <polygon class="fil18" points="1228.71,1075.7 1231.08,1063.24 1231.08,1052.83 1228.71,1040.37 1249.55,1040.37 1247.19,1052.83 1247.19,1063.24 1249.55,1075.7 "/>
  <polygon class="fil19" points="1228.71,1075.7 1230.98,1063.72 1247.28,1063.72 1249.55,1075.7 "/>
  <polygon class="fil19" points="1231.08,1052.92 1231.08,1052.83 1228.71,1040.37 1249.55,1040.37 1247.19,1052.83 1247.19,1052.92 "/>
  <rect class="fil11" transform="matrix(2.08881E-014 -0.573189 0.259055 4.98627E-015 1184.93 1151.52)" width="245.835" height="61.4587"/>
  <polygon class="fil18" points="1182.46,1119.24 1184.83,1106.78 1184.83,1096.37 1182.46,1083.91 1203.31,1083.91 1200.94,1096.37 1200.94,1106.78 1203.31,1119.24 "/>
  <polygon class="fil19" points="1182.46,1119.24 1184.74,1107.26 1201.03,1107.26 1203.31,1119.24 "/>
  <polygon class="fil19" points="1184.83,1096.45 1184.83,1096.37 1182.46,1083.91 1203.31,1083.91 1200.94,1096.37 1200.94,1096.45 "/>
  <path class="fil20" d="M1341.29 1017.75c18.789,0 35.8004,7.61693 48.1158,19.9311 12.3142,12.3142 19.9311,29.3256 19.9311,48.1146 0,18.789 -7.61693,35.8004 -19.9311,48.1146 -12.3154,12.3142 -29.3268,19.9311 -48.1158,19.9311 -18.7878,0 -35.7992,-7.61693 -48.1146,-19.9311 -12.3142,-12.3142 -19.9311,-29.3256 -19.9311,-48.1146 0,-18.789 7.61693,-35.8004 19.9311,-48.1146 12.3154,-12.3142 29.3268,-19.9311 48.1146,-19.9311z"/>
  <path class="fil21" d="M1370.01 1057.08c-7.34882,-7.34882 -17.5016,-11.8937 -28.7197,-11.8937 -11.2158,0 -21.3697,4.54489 -28.7185,11.8937 -7.34882,7.34882 -11.8937,17.5028 -11.8937,28.7197 0,11.2169 4.54489,21.3697 11.8937,28.7185 7.34882,7.34882 17.5028,11.8949 28.7185,11.8949 11.2181,0 21.3709,-4.54607 28.7197,-11.8949 7.34882,-7.34882 11.8937,-17.5016 11.8937,-28.7185 0,-11.2169 -4.54489,-21.3709 -11.8937,-28.7197z"/>
  <circle class="fil22" cx="1328.32" cy="1055.35" r="4.08052"/>
 </g>
</svg>
